<?xml version="1.0" encoding="UTF-8"?>
<!DOCTYPE svg PUBLIC "-//W3C//DTD SVG 1.1//EN" "http://www.w3.org/Graphics/SVG/1.1/DTD/svg11.dtd">
<svg version="1.1" xmlns="http://www.w3.org/2000/svg" xmlns:xlink="http://www.w3.org/1999/xlink" x="0" y="0" width="32" height="32" viewBox="0, 0, 32, 32">
  <g id="Layer_1">
    <g>
      <path d="M5.935,5.701 L5.935,5.701 C7.1,5.537 8.176,6.348 8.34,7.513 L10.315,21.568 C10.479,22.732 9.668,23.808 8.503,23.972 L8.503,23.972 C7.339,24.136 6.262,23.325 6.099,22.16 L4.123,8.105 C3.96,6.941 4.771,5.864 5.935,5.701 z" fill="#053E60"/>
      <path d="M14.047,11.47 L14.047,11.47 C15.159,11.852 15.75,13.064 15.367,14.176 L10.746,27.595 C10.363,28.707 9.152,29.298 8.04,28.915 L8.04,28.915 C6.928,28.533 6.337,27.321 6.72,26.209 L11.341,12.789 C11.724,11.678 12.935,11.087 14.047,11.47 z" fill="#053E60"/>
      <path d="M27.274,15.977 L27.274,15.977 C28.105,16.808 28.105,18.156 27.274,18.987 L17.238,29.023 C16.407,29.855 15.059,29.855 14.227,29.023 L14.227,29.023 C13.396,28.192 13.396,26.844 14.227,26.013 L24.263,15.977 C25.095,15.145 26.443,15.145 27.274,15.977 z" fill="#053E60"/>
      <path d="M10.947,3.323 L10.947,3.323 C11.588,2.337 12.906,2.056 13.892,2.697 L25.796,10.427 C26.782,11.067 27.062,12.386 26.422,13.372 L26.422,13.372 C25.781,14.358 24.463,14.638 23.477,13.998 L11.573,6.268 C10.587,5.627 10.307,4.309 10.947,3.323 z" fill="#053E60"/>
    </g>
  </g>
</svg>
