<?xml version="1.0" encoding="UTF-8"?>
<!DOCTYPE svg PUBLIC "-//W3C//DTD SVG 1.1//EN" "http://www.w3.org/Graphics/SVG/1.1/DTD/svg11.dtd">
<svg version="1.1" xmlns="http://www.w3.org/2000/svg" xmlns:xlink="http://www.w3.org/1999/xlink" x="0" y="0" width="32" height="32" viewBox="0, 0, 32, 32">
  <g id="Layer_1">
    <path d="M30.073,15.928 C29.49,15.345 24.969,12.282 19.427,12.282 C18.808,12.282 18.206,12.319 17.615,12.377 L12.719,9.657 C12.719,10.971 13.089,12.286 13.412,13.183 C10.581,13.943 8.133,14.907 6.01,14.907 L1.344,11.99 C1.344,14.324 2.51,16.657 2.51,16.657 C2.51,16.657 1.344,18.99 1.344,21.324 L6.01,18.407 C8.133,18.407 10.581,19.372 13.412,20.131 C13.089,21.029 12.719,22.343 12.719,23.657 L17.615,20.937 C18.206,20.995 18.808,21.032 19.427,21.032 C24.969,21.032 29.49,17.97 30.073,17.386 C30.656,16.803 30.654,16.509 30.073,15.928 z" fill="#053E60"/>
  </g>
</svg>
