<?xml version="1.0" encoding="UTF-8"?>
<!DOCTYPE svg PUBLIC "-//W3C//DTD SVG 1.1//EN" "http://www.w3.org/Graphics/SVG/1.1/DTD/svg11.dtd">
<svg version="1.1" xmlns="http://www.w3.org/2000/svg" xmlns:xlink="http://www.w3.org/1999/xlink" x="0" y="0" width="32" height="32" viewBox="0, 0, 32, 32">
  <g id="Layer_1">
    <path d="M26.958,25.327 C26.913,25.241 26.561,24.732 26.174,24.197 C25.37,23.085 24.662,21.765 24.16,20.441 C24.028,20.093 23.694,19.557 23.126,18.784 C22.787,18.323 22.502,18.007 22.086,17.636 C21.771,17.354 21.398,16.991 21.258,16.828 C20.807,16.306 20.397,15.728 20.426,15.653 C20.441,15.613 20.614,15.531 20.81,15.472 C21.357,15.305 21.609,15.116 22.013,14.567 C22.791,13.51 22.927,13.232 23.174,12.199 C23.589,10.459 24.107,9.633 25.48,8.519 C25.904,8.176 25.988,8.082 25.988,7.961 C25.988,7.769 25.824,7.62 25.658,7.662 C25.481,7.706 24.966,8.095 24.495,8.541 C23.466,9.515 22.93,10.482 22.601,11.962 C22.423,12.76 22.224,13.202 21.72,13.909 C21.469,14.262 21.184,14.604 21.087,14.67 C20.93,14.775 20.48,14.931 20.087,15.016 C19.883,15.06 19.802,14.945 19.732,14.513 C19.698,14.304 19.637,14.037 19.595,13.919 C19.417,13.41 19.441,13.132 19.691,12.804 C20.094,12.273 21.106,10.611 21.34,10.093 C21.822,9.025 21.637,8.057 20.633,6.398 C20.505,6.186 20.367,5.92 20.328,5.807 C20.151,5.306 20.183,4.614 20.417,3.9 C20.516,3.595 20.518,3.564 20.439,3.444 C20.337,3.287 20.137,3.275 19.995,3.417 C19.742,3.671 19.563,4.694 19.638,5.467 C19.683,5.935 19.817,6.267 20.248,6.984 C20.945,8.143 21.128,8.915 20.871,9.609 C20.663,10.173 19.425,12.177 19.242,12.248 C19.203,12.262 19.061,12.17 18.927,12.043 C18.639,11.772 18.306,11.593 17.886,11.483 C17.72,11.44 17.572,11.392 17.558,11.378 C17.543,11.363 17.676,11.335 17.853,11.315 C18.112,11.286 18.216,11.244 18.385,11.103 C18.541,10.972 18.644,10.928 18.791,10.928 C18.96,10.928 19.023,10.891 19.233,10.665 C19.368,10.521 19.541,10.269 19.618,10.105 C19.74,9.844 19.758,9.742 19.758,9.286 C19.758,8.804 19.745,8.738 19.59,8.422 C19.18,7.584 18.201,7.055 17.242,7.153 C16.889,7.189 16.76,7.137 16.76,6.958 C16.76,6.881 16.733,6.866 16.639,6.89 C16.544,6.914 16.505,6.89 16.455,6.78 C16.393,6.644 16.388,6.643 16.289,6.732 C16.194,6.819 16.179,6.819 16.092,6.74 C16.005,6.661 15.991,6.661 15.909,6.744 C15.831,6.821 15.805,6.824 15.706,6.762 C15.604,6.698 15.583,6.703 15.518,6.802 C15.477,6.863 15.42,6.913 15.393,6.913 C15.365,6.913 15.279,6.979 15.203,7.06 C15.082,7.189 15.024,7.208 14.734,7.216 C13.863,7.239 13.074,7.722 12.716,8.452 C12.576,8.737 12.563,8.811 12.563,9.312 C12.563,9.812 12.576,9.884 12.715,10.159 C12.798,10.324 12.97,10.564 13.098,10.693 C13.283,10.881 13.365,10.928 13.509,10.928 C13.63,10.928 13.726,10.968 13.804,11.05 C13.973,11.231 14.088,11.276 14.492,11.319 L14.857,11.358 L14.397,11.508 C13.859,11.683 13.579,11.861 13.246,12.242 L13.005,12.518 L12.847,12.335 C12.76,12.235 12.53,11.93 12.334,11.658 C11.175,10.04 10.812,8.974 11.146,8.165 C11.21,8.007 11.496,7.514 11.779,7.07 C12.408,6.084 12.546,5.729 12.578,5.012 C12.603,4.471 12.507,3.304 12.425,3.148 C12.35,3.005 12.188,2.939 12.069,3.003 C11.864,3.112 11.851,3.22 11.938,4.059 C12.069,5.303 11.999,5.566 11.211,6.802 C10.503,7.912 10.428,8.102 10.43,8.79 C10.432,9.246 10.456,9.406 10.572,9.743 C10.917,10.742 11.734,12.047 12.624,13.022 C12.835,13.253 12.888,13.344 12.865,13.439 C12.849,13.506 12.769,13.805 12.686,14.105 C12.604,14.403 12.537,14.709 12.537,14.784 C12.537,14.981 12.399,15.151 12.239,15.151 C12.106,15.151 11.606,14.901 11.222,14.644 C11.035,14.519 10.457,13.845 10.098,13.335 C10.004,13.201 9.755,12.764 9.545,12.362 C8.767,10.874 8.158,9.906 7.3,8.791 C6.606,7.888 6.622,7.905 6.451,7.905 C6.259,7.905 6.177,7.99 6.177,8.189 C6.177,8.31 6.301,8.511 6.695,9.026 C7.645,10.269 8.386,11.442 9.018,12.703 C9.351,13.369 9.647,13.817 10.147,14.415 C10.632,14.995 10.859,15.19 11.349,15.448 C11.783,15.676 11.792,15.736 11.461,16.197 C11.118,16.676 10.833,16.958 10.503,17.145 C10.226,17.303 9.975,17.518 9.36,18.123 C9.089,18.39 8.964,18.558 8.22,19.658 C7.861,20.188 7.545,20.817 7.145,21.799 C6.547,23.263 6.081,23.945 5.298,24.504 C4.868,24.811 4.867,24.813 4.883,25.026 C4.898,25.229 4.907,25.24 5.082,25.255 C5.224,25.267 5.339,25.223 5.59,25.061 C6.486,24.482 7.092,23.617 7.73,22.007 C8.042,21.221 8.393,20.522 8.718,20.041 C8.879,19.804 9.104,19.468 9.218,19.296 C9.441,18.96 9.715,18.645 9.784,18.645 C9.829,18.645 9.822,18.661 9.419,19.557 C9.276,19.872 9.062,20.424 8.943,20.782 C8.824,21.14 8.707,21.481 8.682,21.538 C8.389,22.207 8.217,24.53 8.395,25.411 C8.57,26.282 9.031,26.941 9.678,27.247 C10.143,27.467 10.491,27.525 11.155,27.493 C11.829,27.46 12.247,27.343 12.763,27.04 C12.96,26.925 13.14,26.842 13.163,26.856 C13.186,26.871 13.335,27.077 13.494,27.316 C13.832,27.825 14.458,28.44 14.828,28.627 C15.124,28.777 15.575,28.949 15.769,28.985 L15.769,28.985 C16.163,29.059 16.893,28.848 17.423,28.507 C17.752,28.295 18.14,27.895 18.544,27.351 C18.764,27.054 18.912,26.902 18.993,26.891 C19.061,26.881 19.322,26.979 19.592,27.114 C20.219,27.429 20.679,27.524 21.426,27.493 C21.844,27.477 22.078,27.44 22.292,27.358 C22.995,27.087 23.47,26.562 23.724,25.774 C23.974,24.998 23.947,23.373 23.664,22.067 C23.603,21.785 23.12,20.301 22.936,19.831 C22.862,19.639 23.047,19.746 23.207,19.987 C23.41,20.292 23.522,20.517 23.77,21.121 C23.877,21.379 24.169,22.012 24.421,22.529 C24.81,23.326 24.998,23.634 25.673,24.577 C26.11,25.187 26.524,25.724 26.594,25.77 C26.869,25.949 27.121,25.643 26.958,25.327 z M14.496,20.011 C14.477,20.19 14.441,20.479 14.414,20.651 C14.387,20.823 14.327,21.269 14.281,21.641 C14.235,22.014 14.126,22.671 14.04,23.101 C13.571,25.418 12.725,26.628 11.396,26.88 C10.752,27.002 10.286,26.898 9.895,26.547 C9.358,26.064 9.179,25.491 9.186,24.274 C9.192,23.023 9.446,21.773 9.914,20.678 C10.043,20.377 10.23,19.913 10.33,19.647 C10.55,19.062 10.83,18.548 11.409,17.668 C12.309,16.301 12.583,15.943 12.681,16.003 C12.709,16.02 12.761,16.182 12.796,16.362 C13.018,17.497 13.597,18.673 14.319,19.456 C14.529,19.683 14.529,19.683 14.496,20.011 z M22.948,23.042 C23.061,23.769 23.06,24.979 22.945,25.421 C22.749,26.177 22.336,26.696 21.803,26.854 L21.803,26.854 C21.138,27.052 20.25,26.827 19.63,26.305 C19.029,25.797 18.417,24.494 18.172,23.2 C18.063,22.624 17.852,21.178 17.776,20.5 L17.696,19.775 L18.053,19.405 C18.74,18.691 19.159,17.895 19.467,16.717 C19.546,16.418 19.635,16.165 19.667,16.154 C19.732,16.132 20.144,16.676 20.731,17.558 C21.339,18.471 21.634,19.014 21.903,19.71 C22.037,20.055 22.234,20.538 22.343,20.781 C22.565,21.278 22.823,22.246 22.948,23.042 z" fill="#053E60"/>
  </g>
</svg>
