<?xml version="1.0" encoding="UTF-8"?>
<!DOCTYPE svg PUBLIC "-//W3C//DTD SVG 1.1//EN" "http://www.w3.org/Graphics/SVG/1.1/DTD/svg11.dtd">
<svg version="1.1" xmlns="http://www.w3.org/2000/svg" xmlns:xlink="http://www.w3.org/1999/xlink" x="0" y="0" width="32" height="32" viewBox="0, 0, 32, 32">
  <g id="Layer_1">
    <path d="M15.884,1 C16.12,1 17.139,1.137 17.139,2.019 C17.139,2.327 17.133,2.608 17.122,2.862 C17.162,2.826 17.219,2.805 17.266,2.805 C17.289,2.805 17.31,2.81 17.325,2.823 C17.371,2.862 17.423,2.934 17.341,3.208 C17.259,3.483 17.25,3.558 17.221,3.689 C17.203,3.765 17.162,3.811 17.12,3.811 C17.099,3.811 17.078,3.8 17.06,3.775 C17.055,3.837 17.047,3.896 17.041,3.947 C16.99,4.289 17.033,4.113 16.903,4.471 C17.193,4.684 17.468,4.995 17.826,5.092 L17.829,5.092 C18.013,5.092 18.032,5.213 19.669,5.213 L19.688,5.234 L19.689,5.228 C19.69,5.229 19.691,5.23 19.691,5.23 C19.768,5.397 20.791,5.578 21.484,7.061 C21.59,7.289 21.688,7.547 21.774,7.84 C21.774,7.84 22.903,8.468 23.935,9.648 C24.967,10.83 25.425,11.625 26.136,12.284 C26.847,12.942 27.295,13.098 27.652,13.595 C28.008,14.092 28.314,14.458 28.696,14.866 C28.696,14.866 28.594,15.039 28.196,14.763 C27.798,14.487 27.871,14.376 27.518,14.215 C27.163,14.053 26.918,13.917 26.917,13.917 C26.918,13.917 26.95,13.981 26.994,14.076 C27.112,14.327 27.312,14.798 27.218,14.912 C27.089,15.068 26.905,14.961 26.81,14.757 C26.714,14.551 26.662,14.441 26.615,14.338 C26.566,14.236 26.507,14.129 26.198,14.023 C25.918,13.928 25.663,13.562 25.448,13.103 C25.425,13.054 25.403,13.004 25.38,12.953 C25.38,12.953 24.002,12.222 23.088,11.562 C22.175,10.903 21.821,10.452 21.514,9.98 C21.207,9.509 21.254,9.525 20.931,9.33 C20.231,8.94 19.753,8.291 19.326,7.632 C19.12,8.364 19.03,9.147 18.68,9.831 C18.427,10.188 18.384,10.153 18.41,10.71 C18.436,11.268 18.654,11.799 18.454,12.488 C18.253,13.175 18.475,13.585 18.619,14.238 C18.764,14.891 18.793,15.736 18.724,16.973 C18.654,18.21 18.532,19.151 18.427,19.83 C18.323,20.509 18.292,20.775 18.318,21.35 C18.345,21.925 18.319,22.356 18.332,22.722 C18.344,23.088 18.632,23.48 18.645,24.407 C18.658,25.335 18.528,26.184 18.28,27.282 C18.032,28.379 18.045,28.484 18.097,28.836 C18.149,29.189 18.005,29.503 18.175,29.659 C18.344,29.816 18.488,29.969 18.828,30.187 C19.168,30.404 19.351,30.474 19.298,30.605 C19.246,30.736 18.959,30.849 18.602,30.953 C18.491,30.986 18.376,31 18.264,31 C18.013,31 17.774,30.931 17.618,30.841 C17.392,30.71 17.295,30.675 17.034,30.675 C16.772,30.675 16.686,30.596 16.677,30.396 C16.668,30.196 16.798,30.021 16.929,29.812 C17.06,29.603 17.086,29.481 17.025,29.299 C16.964,29.115 16.991,29.072 17.008,28.802 C17.025,28.532 16.999,27.365 16.991,26.816 C16.982,26.267 16.79,25.876 16.668,25.388 C16.546,24.899 16.537,24.324 16.59,23.854 C16.641,23.384 16.616,23.366 16.563,22.905 C16.511,22.443 16.381,21.79 16.25,21.041 C16.119,20.292 16.058,19.839 16.067,19.064 C16.076,18.288 16.016,17.365 15.918,17.365 C15.82,17.365 15.741,18.288 15.75,19.064 C15.758,19.839 15.697,20.292 15.566,21.041 C15.435,21.79 15.305,22.443 15.253,22.905 C15.2,23.366 15.174,23.384 15.226,23.854 C15.279,24.324 15.27,24.899 15.148,25.388 C15.026,25.876 14.835,26.268 14.826,26.816 C14.817,27.365 14.791,28.532 14.808,28.802 C14.826,29.072 14.852,29.116 14.791,29.299 C14.731,29.481 14.756,29.603 14.887,29.812 C15.018,30.021 15.149,30.195 15.14,30.396 C15.131,30.596 15.044,30.675 14.783,30.675 C14.521,30.675 14.426,30.71 14.199,30.841 C14.043,30.931 13.803,31 13.553,31 C13.44,31 13.326,30.986 13.215,30.953 C12.858,30.849 12.57,30.736 12.518,30.605 C12.466,30.474 12.649,30.404 12.988,30.187 C13.328,29.969 13.472,29.816 13.642,29.66 C13.812,29.503 13.668,29.189 13.72,28.836 C13.772,28.484 13.785,28.379 13.537,27.282 C13.289,26.184 13.158,25.335 13.171,24.407 C13.184,23.48 13.472,23.088 13.485,22.722 C13.498,22.356 13.472,21.925 13.498,21.35 C13.524,20.776 13.494,20.509 13.389,19.83 C13.284,19.151 13.163,18.21 13.093,16.973 C13.023,15.736 13.054,14.892 13.198,14.238 C13.341,13.585 13.563,13.176 13.363,12.488 C13.163,11.799 13.38,11.268 13.406,10.711 C13.433,10.153 13.389,10.188 13.136,9.831 C12.825,9.189 12.695,8.472 12.527,7.782 C12.157,8.383 11.669,8.887 11.069,9.253 C10.747,9.448 10.793,9.432 10.486,9.903 C10.179,10.375 9.825,10.825 8.912,11.485 C7.998,12.145 6.619,12.876 6.619,12.876 C6.597,12.927 6.575,12.977 6.552,13.026 C6.337,13.485 6.081,13.851 5.802,13.946 C5.493,14.052 5.434,14.159 5.386,14.261 C5.338,14.364 5.286,14.475 5.19,14.68 C5.095,14.884 4.911,14.991 4.782,14.835 C4.688,14.722 4.888,14.25 5.005,13.999 C5.05,13.904 5.082,13.841 5.082,13.841 C5.082,13.841 4.837,13.976 4.482,14.138 C4.129,14.299 4.202,14.41 3.804,14.686 C3.406,14.961 3.304,14.789 3.304,14.789 C3.686,14.381 3.992,14.015 4.349,13.518 C4.706,13.021 5.154,12.865 5.865,12.206 C6.576,11.548 7.033,10.753 8.066,9.571 C9.097,8.39 10.227,7.763 10.227,7.763 C10.312,7.47 10.411,7.211 10.517,6.984 C10.808,6.32 11.294,5.811 11.891,5.414 C12.394,5.081 12.123,5.326 12.276,5.184 C12.286,5.17 12.28,5.175 12.293,5.169 L12.31,5.153 C12.31,5.152 12.311,5.151 12.311,5.15 L12.313,5.16 C12.433,5.109 12.374,5.121 12.488,5.116 C13.771,5.111 13.819,5.093 13.988,5.093 L13.99,5.093 C14.147,5.086 14.643,4.666 14.864,4.471 L14.867,4.472 C14.737,4.113 14.779,4.289 14.728,3.947 C14.722,3.896 14.715,3.837 14.709,3.775 C14.691,3.799 14.67,3.811 14.65,3.811 C14.608,3.811 14.566,3.765 14.549,3.689 C14.52,3.558 14.51,3.483 14.427,3.208 C14.346,2.934 14.398,2.862 14.443,2.823 C14.458,2.81 14.479,2.805 14.503,2.805 C14.549,2.805 14.607,2.826 14.647,2.862 C14.637,2.608 14.63,2.327 14.63,2.019 C14.63,1.137 15.649,1 15.885,1 z" fill="#053E60"/>
  </g>
</svg>
