<?xml version="1.0" encoding="UTF-8"?>
<!DOCTYPE svg PUBLIC "-//W3C//DTD SVG 1.1//EN" "http://www.w3.org/Graphics/SVG/1.1/DTD/svg11.dtd">
<svg version="1.1" xmlns="http://www.w3.org/2000/svg" xmlns:xlink="http://www.w3.org/1999/xlink" x="0" y="0" width="32" height="32" viewBox="0, 0, 32, 32">
  <g id="Layer_1">
    <path d="M30.073,5.139 C30.087,5.033 30.42,4.993 30.272,4.682 C30.109,4.528 29.898,4.649 29.715,4.583 C28.959,4.312 27.13,4.48 25.548,4.97 C25.283,3.796 24.7,2.98 24.016,2.975 C23.369,2.969 22.8,3.689 22.499,4.755 C21.179,4.101 19.92,4.045 19.477,4.695 C18.989,5.413 19.664,6.739 20.999,7.785 C20.094,8.681 19.359,9.667 18.808,10.623 C16.749,14.189 14.212,16.248 13.319,18.305 C12.755,19.608 12.082,22.12 12.882,23.962 C12.14,23.902 11.269,23.868 10.27,23.862 C7.715,23.846 6.854,23.169 6.854,22.862 C6.854,22.615 7.502,22.127 9.002,22.113 C11.074,22.094 11.81,21.36 11.807,20.68 C11.803,19.652 10.136,18.614 6.426,18.614 C4.108,18.614 2.332,19.196 1.791,20.131 C1.587,20.486 1.58,20.867 1.775,21.204 C2.177,21.901 3.378,22.284 5.157,22.284 C5.384,22.284 5.569,22.1 5.569,21.871 C5.569,21.644 5.384,21.459 5.157,21.459 C3.355,21.459 2.632,21.039 2.487,20.79 C2.455,20.733 2.433,20.663 2.504,20.541 C2.761,20.097 4.017,19.435 6.425,19.435 C9.857,19.435 10.982,20.362 10.983,20.681 C10.985,20.886 10.402,21.273 8.994,21.286 C6.945,21.306 6.029,22.09 6.03,22.859 C6.032,23.728 7.145,24.662 10.264,24.681 C11.551,24.69 12.511,24.744 13.227,24.817 C13.596,25.578 14.802,25.893 15.657,26.78 C16.797,27.96 17.23,28.485 17.748,28.821 C18.002,28.986 18.105,29.031 18.319,28.892 C18.533,28.689 18.6,28.875 18.492,28.505 C18.402,28.194 17.983,28.339 17.806,27.999 C17.793,27.96 17.528,27.651 17.432,27.313 C17.357,27.047 17.59,26.823 17.657,26.722 C17.786,26.491 18.377,26.654 18.866,26.668 C19.274,26.708 19.859,26.839 20.223,26.882 C22.65,27.18 24.237,27.642 24.373,27.079 C24.495,26.762 24.577,26.732 24.302,26.545 C24.066,26.457 23.799,26.375 23.323,26.314 C22.819,26.249 21.872,26.416 21.502,26.164 C21.328,26.036 21.366,25.961 21.374,25.776 C24.283,24.492 24.427,21.017 24.844,16.931 C25.079,14.631 24.99,12.569 25.632,11.059 C25.996,10.201 26.76,9.673 27.451,8.974 C28.322,8.087 29.946,6.104 30.073,5.139 z" fill="#053E60"/>
  </g>
</svg>
