<?xml version="1.0" encoding="UTF-8"?>
<!DOCTYPE svg PUBLIC "-//W3C//DTD SVG 1.1//EN" "http://www.w3.org/Graphics/SVG/1.1/DTD/svg11.dtd">
<svg version="1.1" xmlns="http://www.w3.org/2000/svg" xmlns:xlink="http://www.w3.org/1999/xlink" x="0" y="0" width="32" height="32" viewBox="0, 0, 32, 32">
  <g id="Layer_1">
    <g>
      <path d="M24.165,16.568 C24.165,15.79 24.165,15.146 24.165,14.471 C24.165,14.144 23.941,13.817 23.613,13.817 C21.282,13.817 18.952,13.817 16.621,13.817 C16.244,12.885 16.438,11.774 16.989,10.767 C18.08,11.038 19.238,10.963 20.267,10.5 C21.348,9.872 22.124,8.799 22.489,7.607 C22.533,7.465 22.439,7.328 22.306,7.284 C19.783,6.459 17.387,7.664 16.515,10.112 C15.773,11.295 15.488,12.65 15.836,13.817 C13.332,13.817 10.829,13.817 8.325,13.817 C7.998,13.817 7.762,14.144 7.762,14.471 C7.762,15.227 7.762,15.983 7.762,16.739 C7.762,17.066 7.998,17.462 8.325,17.462 C13.421,17.462 18.393,17.462 23.557,17.462 C24.162,17.462 24.363,16.928 24.165,16.568 z" fill="#053E60"/>
      <path d="M22.963,18.07 C18.35,18.07 13.738,18.07 9.125,18.07 C8.723,18.07 8.517,18.39 8.575,18.75 C9.156,22.385 9.738,25.941 10.32,29.576 C10.359,29.823 10.637,29.916 10.87,29.916 C14.275,29.916 17.694,29.916 20.995,29.916 C21.283,30.074 21.662,30.022 21.756,29.646 C21.804,29.566 21.82,29.477 21.802,29.39 C22.372,25.825 22.943,22.308 23.514,18.741 C23.571,18.381 23.365,18.07 22.963,18.07 z" fill="#053E60"/>
      <path d="M15.26,10.898 C15.429,10.97 15.677,10.966 15.766,10.765 C16.489,9.149 16.676,7.307 16.118,5.618 C16.11,5.592 16.099,5.569 16.087,5.547 C16.085,5.541 16.084,5.535 16.081,5.529 C15.381,3.959 13.994,2.713 12.415,2.042 C12.246,1.971 11.998,1.975 11.908,2.175 C10.337,5.689 11.696,9.386 15.26,10.898 z" fill="#053E60"/>
    </g>
  </g>
</svg>
