<?xml version="1.0" encoding="UTF-8"?>
<!DOCTYPE svg PUBLIC "-//W3C//DTD SVG 1.1//EN" "http://www.w3.org/Graphics/SVG/1.1/DTD/svg11.dtd">
<svg version="1.1" xmlns="http://www.w3.org/2000/svg" xmlns:xlink="http://www.w3.org/1999/xlink" x="0" y="0" width="320" height="320" viewBox="0, 0, 320, 320">
  <g id="Image">
    <path d="M97.467,91.659 C92.778,83.631 83.571,85.589 77.816,91.815 C71.539,98.605 71.427,109.146 65.224,115.495 C60.49,120.341 52.653,122.745 47.155,126.847 C37.939,133.724 30.892,142.447 24.65,152.034 C21.928,156.215 16.826,162.43 16.702,167.634 C16.584,172.621 24.933,173.243 28.467,174.31 C40.145,177.836 53.688,180.609 65.842,178.463 C77.333,176.433 89.015,173.426 100.342,170.722 C106.276,180.681 116.467,184.61 127.655,185.097 C127.607,189.21 127.959,194.27 124.323,197.111 C120.656,199.976 115.879,197.962 111.843,197.264 C103.046,195.745 94.538,196.704 90.28,205.222 C100.446,210.114 113.693,208.228 124.78,208.092 C129.58,208.033 134.941,207.935 138.704,204.484 C146.685,197.162 145.223,185.681 157.843,181.723 C172.805,177.03 201.779,182.642 206.719,199.472 C194.273,198.456 178.696,191.624 170.781,205.222 C183.94,211.555 202.439,207.698 216.781,208.119 C226.084,208.394 234.758,212.7 244.094,213.603 C262.08,215.343 275.813,207.76 290.095,198.035 C289.883,223.286 267.802,236.826 244.094,233.125 C219.849,229.338 197.005,218.958 172.218,218.346 C158.343,218.003 142.881,222.592 130.53,228.595 C121.096,233.182 109.411,238.594 104.655,248.348 C113.518,250.373 120.227,243.466 127.655,239.336 C139.429,232.791 151.555,228.333 165.031,227.03 C201.853,223.466 241.911,254.163 277.157,235.662 C288.275,229.827 296.28,219.314 297.152,206.66 C297.512,201.416 295.769,195.999 296.648,190.847 C298.257,181.43 302.88,173.446 303.005,163.534 C303.416,131.087 282.66,101.967 255.594,85.929 C231.579,71.7 203.352,66.761 176.531,75.959 C158.565,82.12 142.026,93.762 123.348,97.726 C116.448,99.19 115.346,94.594 110.104,91.693 C106.115,89.485 101.606,90.676 97.467,91.659 z" fill="#053E60"/>
  </g>
</svg>
