<?xml version="1.0" encoding="UTF-8"?>
<!DOCTYPE svg PUBLIC "-//W3C//DTD SVG 1.1//EN" "http://www.w3.org/Graphics/SVG/1.1/DTD/svg11.dtd">
<svg version="1.1" xmlns="http://www.w3.org/2000/svg" xmlns:xlink="http://www.w3.org/1999/xlink" x="0" y="0" width="32" height="32" viewBox="0, 0, 32, 32">
  <g id="Layer_1">
    <path d="M15.632,18.093 C16.787,20.761 17.653,22.496 20.027,24.383 C22.074,26.009 23.992,26.554 25.846,26.264 C28.147,25.903 29.42,24.214 29.81,22.703 C30.148,21.393 30.076,20.074 29.75,18.017 C29.247,14.836 27.739,11.641 26.897,12.046 C25.51,12.712 27.266,15.386 26.767,20.291 C26.645,21.49 26.191,22.344 25.098,22.568 C23.851,22.824 22.089,21.273 21.501,20.554 C20.123,18.868 19.568,17.859 18.435,15.026 L16.834,11.22 C15.835,8.908 14.526,7.538 12.851,6.664 C10.337,5.351 7.41,5.637 5.309,6.7 C4.021,7.352 2.759,8.907 2.45,10.043 C1.852,12.239 2.32,14.401 3.73,15.969 C7.321,19.963 11.475,18.795 11.124,18.67 C8.908,17.878 7.683,17.421 6.265,15.907 C4.013,13.503 4.728,11.17 5.087,10.65 C5.757,9.679 6.425,8.969 7.957,8.727 C9.502,8.483 10.851,8.994 11.894,10.116 C13.12,11.435 13.613,13.017 14.461,15.094" fill="#053E60"/>
  </g>
</svg>
