<?xml version="1.0" encoding="UTF-8"?>
<!DOCTYPE svg PUBLIC "-//W3C//DTD SVG 1.1//EN" "http://www.w3.org/Graphics/SVG/1.1/DTD/svg11.dtd">
<svg version="1.1" xmlns="http://www.w3.org/2000/svg" xmlns:xlink="http://www.w3.org/1999/xlink" x="0" y="0" width="32" height="32" viewBox="0, 0, 32, 32">
  <g id="Layer_1">
    <g>
      <path d="M9.135,17.528 C5.808,17.528 3.111,14.178 3.111,10.045 C3.111,5.912 5.808,2.562 9.135,2.562 C12.462,2.562 15.16,5.912 15.16,10.045 C15.16,14.178 12.462,17.528 9.135,17.528 z" fill="#053E60"/>
      <path d="M15.401,8.577 C13.776,8.577 12.46,7.006 12.46,5.068 C12.46,3.13 13.776,1.559 15.401,1.559 C17.025,1.559 18.342,3.13 18.342,5.068 C18.342,7.006 17.025,8.577 15.401,8.577 z" fill="#053E60"/>
      <path d="M4.113,25.615 C2.137,24.015 1.623,21.376 2.964,19.72 C4.305,18.064 6.993,18.019 8.969,19.618 C10.945,21.218 11.459,23.858 10.118,25.514 C8.777,27.17 6.089,27.215 4.113,25.615 z" fill="#053E60"/>
      <path d="M18.565,30.441 C15.001,30.441 12.111,28.322 12.111,25.708 C12.111,23.094 15.001,20.975 18.565,20.975 C22.13,20.975 25.019,23.094 25.019,25.708 C25.019,28.322 22.13,30.441 18.565,30.441 z" fill="#053E60"/>
      <path d="M23.062,19.538 C21.037,18.223 20.452,15.53 21.756,13.523 C23.059,11.516 25.757,10.955 27.782,12.27 C29.807,13.585 30.392,16.278 29.089,18.285 C27.785,20.292 25.087,20.853 23.062,19.538 z" fill="#053E60"/>
      <path d="M19.644,10.655 C18.675,8.67 19.065,6.488 20.513,5.781 C21.962,5.074 23.921,6.111 24.89,8.097 C25.858,10.082 25.469,12.265 24.02,12.971 C22.572,13.678 20.612,12.641 19.644,10.655 z" fill="#053E60"/>
      <path d="M17.912,21.694 C16.63,22.465 15.093,22.261 14.479,21.24 C13.866,20.219 14.408,18.766 15.69,17.996 C16.972,17.225 18.509,17.429 19.123,18.45 C19.737,19.471 19.195,20.924 17.912,21.694 z" fill="#053E60"/>
    </g>
  </g>
</svg>
