<?xml version="1.0" encoding="UTF-8"?>
<!DOCTYPE svg PUBLIC "-//W3C//DTD SVG 1.1//EN" "http://www.w3.org/Graphics/SVG/1.1/DTD/svg11.dtd">
<svg version="1.1" xmlns="http://www.w3.org/2000/svg" xmlns:xlink="http://www.w3.org/1999/xlink" x="0" y="0" width="96" height="96" viewBox="0, 0, 96, 96">
    <style>
    .bg1 { fill: #808080; }
    .b1 { fill: #000000; }
    .bg2 { fill: #ebbe8f; }
    .b2 { fill: #eb9123; }
    @media (prefers-color-scheme: dark) {
      .bg1 { fill: #a5a5a5; }
      .b1 { fill: #ffffff; }
      .bg2 { fill: #a5a5a5; }
      .b2 { fill: #ffffff; }
    }
  </style>
  <g class="bg1">
    <path d="M14.446,31.149 C14.933,37.046 19.963,41.351 25.757,41.498 C27.32,41.498 28.854,41.179 30.277,40.561 L41.243,51.76 C41.138,51.948 41.037,52.138 40.942,52.33 L26.59,50.396 C25.602,45.085 20.938,41.124 15.415,41.124 C9.137,41.124 4.045,46.216 4.045,52.493 C4.045,58.77 9.137,63.863 15.415,63.863 C19.635,63.863 23.465,61.53 25.428,57.88 L39.782,59.814 C39.913,60.675 40.133,61.52 40.439,62.336 L34.418,67.637 C33.788,67.454 33.134,67.36 32.473,67.36 C28.642,67.36 25.535,70.467 25.535,74.298 C25.535,78.128 28.642,81.235 32.473,81.235 C36.302,81.235 39.409,78.128 39.409,74.298 C39.409,73.995 39.39,73.693 39.35,73.394 L45.131,68.304 C47.211,69.727 49.669,70.49 52.216,70.49 C52.716,70.49 53.217,70.46 53.714,70.4 L58.819,80.589 C56.858,82.685 55.754,85.447 55.754,88.354 C55.752,91.345 56.839,93.734 58.711,96 L6.21,96 C3.272,96 0.891,93.618 0.891,90.681 L0.891,46.781 C0.891,45.36 1.459,43.999 2.469,43 L14.446,31.149 z"/>
  </g>
  <g class="b1">
    <path d="M14.446,31.149 C14.933,37.046 19.963,41.351 25.757,41.498 C27.32,41.498 28.854,41.179 30.277,40.561 L41.243,51.76 C41.138,51.948 41.037,52.138 40.942,52.33 L26.59,50.397 C25.602,45.085 20.938,41.124 15.415,41.124 C9.137,41.124 4.045,46.216 4.045,52.493 C4.045,58.77 9.137,63.863 15.415,63.863 C19.635,63.863 23.465,61.53 25.428,57.88 L39.782,59.814 C39.913,60.675 40.133,61.52 40.439,62.336 L34.418,67.637 C33.788,67.454 33.134,67.36 32.473,67.36 C28.642,67.36 25.535,70.467 25.535,74.298 C25.535,78.128 28.642,81.235 32.473,81.235 C36.302,81.235 39.409,78.128 39.409,74.298 C39.409,73.995 39.39,73.693 39.35,73.394 L45.131,68.304 C47.211,69.727 49.669,70.49 52.216,70.49 C52.716,70.49 53.217,70.46 53.715,70.4 L58.819,80.589 C56.858,82.685 55.754,85.447 55.754,88.354 C55.752,91.345 56.839,93.734 58.711,96 L6.21,96 C3.272,96 0.891,93.619 0.891,90.681 L0.891,46.781 C0.891,45.36 1.459,43.999 2.469,43 L14.446,31.149 z M27.481,62.516 C25.323,65.26 21.999,67.153 18.605,67.855 C17.129,68.161 16.702,68.139 15.415,68.183 C11.626,68.203 8.105,66.779 5.211,64.39 L5.211,90.681 C5.211,91.233 5.658,91.68 6.21,91.68 L51.791,91.68 C51.525,90.59 51.458,89.471 51.434,88.354 C51.452,85.469 52.221,82.596 53.767,80.15 L51.066,74.759 C49.226,74.684 47.452,74.186 45.749,73.516 L43.667,75.35 C43.176,81.171 38.185,85.411 32.473,85.555 C26.257,85.555 21.215,80.514 21.215,74.298 C21.294,68.253 25.717,63.681 31.657,63.078 L27.481,62.516 z M29.819,46.268 C29.863,46.359 29.83,46.289 29.904,46.484 L30.05,46.504 L29.819,46.268 z"/>
  </g>
  <g class="bg2">
    <path d="M73.944,23.619 L93.531,43 C94.541,43.999 95.109,45.36 95.109,46.781 L95.109,90.681 C95.109,93.618 92.728,96 89.79,96 L75.289,96 C77.212,93.872 78.173,91.201 78.245,88.354 C78.245,82.076 73.153,76.984 66.876,76.984 C66.342,76.984 65.809,77.021 65.282,77.096 L60.363,67.277 C63.009,64.905 64.545,61.518 64.545,57.911 C64.545,53.615 62.361,49.664 58.819,47.362 L63.311,32.559 C68.363,32.325 72.943,28.642 73.944,23.619 z"/>
    <path d="M53.414,27.163 C54.175,28.395 55.165,29.472 56.328,30.335 L51.774,45.34 C50.03,45.401 48.328,45.82 46.763,46.574 L35.827,35.407 C36.501,34.124 36.921,32.729 37.068,31.285 L53.414,27.163 z"/>
    <path d="M48.124,0 L48.631,0.012 C49.89,0.135 50.938,0.696 51.866,1.526 L60.549,10.118 C55.911,11.246 52.563,14.988 51.826,19.68 L35.244,23.862 C33.333,20.962 30.292,19.262 26.891,18.834 L44.383,1.526 C45.265,0.675 46.392,0.129 47.618,0.012 L48.124,0 z"/>
  </g>
  <g class="b2">
    <path d="M73.944,23.619 L93.531,43 C94.541,43.999 95.109,45.36 95.109,46.781 L95.109,90.681 C95.109,93.618 92.728,96 89.79,96 L75.289,96 C77.212,93.872 78.173,91.201 78.245,88.354 C78.245,82.076 73.153,76.984 66.876,76.984 C66.342,76.984 65.809,77.021 65.282,77.096 L60.363,67.277 C63.009,64.905 64.545,61.518 64.545,57.911 C64.545,53.615 62.361,49.664 58.819,47.362 L63.311,32.559 C68.363,32.325 72.943,28.642 73.944,23.619 z M75.165,30.904 C72.987,33.505 70.03,35.662 66.661,36.398 L63.791,45.853 C67.12,49.178 68.718,53.242 68.865,57.911 C68.872,61.551 67.665,65.023 65.532,67.951 L67.915,72.708 C76.318,73.416 82.353,79.96 82.565,88.354 C82.565,88.391 82.565,88.427 82.564,88.463 C82.562,89.55 82.377,90.618 82.169,91.68 L89.79,91.68 C90.342,91.68 90.789,91.233 90.789,90.681 L90.789,46.781 C90.789,46.514 90.683,46.258 90.493,46.07 L75.165,30.904 z"/>
    <path d="M53.414,27.163 C54.175,28.395 55.165,29.472 56.328,30.335 L51.774,45.34 C50.03,45.401 48.328,45.82 46.763,46.574 L35.827,35.407 C36.501,34.124 36.921,32.729 37.068,31.285 L53.414,27.163 z M51.259,32.161 L41.184,34.702 L47.925,41.586 L48.437,41.46 L51.259,32.161 z"/>
    <path d="M48.124,-0 L48.631,0.012 C49.89,0.135 50.938,0.696 51.866,1.526 L60.549,10.118 C55.911,11.246 52.563,14.988 51.826,19.68 L35.244,23.862 C33.333,20.962 30.292,19.262 26.891,18.834 L44.383,1.526 C45.265,0.675 46.392,0.129 47.618,0.012 L48.124,-0 z M48.124,4.321 L47.963,4.325 C47.737,4.347 47.554,4.491 47.387,4.631 L34.655,17.229 C36.206,18.403 35.658,17.925 36.797,19.015 L48.284,16.118 C49.27,13.324 50.993,10.88 53.287,9.009 L48.938,4.707 C48.748,4.536 48.532,4.377 48.277,4.325 L48.124,4.321 z"/>
  </g>
</svg>
