<?xml version="1.0" standalone="no"?>
<!DOCTYPE svg PUBLIC "-//W3C//DTD SVG 20010904//EN"
 "http://www.w3.org/TR/2001/REC-SVG-20010904/DTD/svg10.dtd">
<svg version="1.0" xmlns="http://www.w3.org/2000/svg"
 width="700.000000pt" height="700.000000pt" viewBox="0 0 700.000000 700.000000"
 preserveAspectRatio="xMidYMid meet">
<metadata>
Created by potrace 1.14, written by Peter Selinger 2001-2017
</metadata>
<g transform="translate(0.000000,700.000000) scale(0.100000,-0.100000)"
fill="#000000" stroke="none">
<path d="M4460 6989 c-86 -15 -104 -20 -180 -49 -214 -83 -384 -242 -483 -451
-33 -70 -66 -176 -72 -226 -1 -13 -4 -25 -6 -28 -4 -3 -383 -100 -429 -110 -8
-2 -35 -8 -60 -15 -25 -7 -52 -14 -60 -15 -8 -2 -60 -16 -115 -30 -55 -15
-107 -28 -116 -30 -9 -2 -117 -29 -240 -60 -290 -74 -271 -72 -292 -36 -9 16
-49 61 -88 101 -279 281 -700 344 -1049 157 -150 -80 -293 -226 -373 -383 -26
-51 -66 -172 -78 -238 -13 -71 -15 -221 -4 -286 12 -75 14 -81 31 -134 118
-362 444 -610 818 -620 127 -3 281 24 357 65 13 6 33 -7 85 -60 51 -51 572
-582 772 -787 28 -29 0 -71 -41 -60 -13 3 -46 8 -73 11 -27 3 -60 8 -74 10
-23 4 -45 7 -147 20 -47 6 -166 22 -213 29 -37 6 -265 36 -315 42 -16 2 -43 6
-60 8 -16 3 -52 8 -80 11 -76 9 -119 15 -120 18 0 1 -8 34 -18 72 -42 167
-162 347 -308 460 -350 273 -849 243 -1163 -68 -135 -134 -209 -273 -251 -472
-13 -60 -13 -269 0 -330 35 -168 129 -338 251 -457 93 -90 181 -148 294 -192
164 -64 330 -78 500 -44 91 18 110 25 210 70 125 56 254 168 347 301 39 55 60
76 72 73 9 -3 41 -8 71 -11 30 -3 116 -15 190 -25 74 -10 158 -21 185 -25 47
-5 214 -28 298 -40 85 -12 110 -15 155 -21 26 -3 56 -7 67 -9 11 -1 43 -6 70
-10 54 -8 58 -9 61 -28 1 -7 12 -50 23 -95 l22 -84 -23 -20 c-13 -11 -36 -31
-53 -46 -16 -15 -91 -80 -165 -145 -74 -66 -155 -137 -178 -159 l-44 -39 -56
12 c-59 12 -183 7 -237 -9 -136 -42 -226 -106 -303 -216 -90 -128 -119 -285
-80 -437 38 -150 134 -273 270 -345 363 -191 793 74 790 487 0 31 3 60 6 65 4
5 41 38 82 74 41 36 80 70 86 75 64 59 158 141 165 143 5 2 9 -479 9 -1123 0
-1118 0 -1128 20 -1161 41 -66 31 -65 750 -62 l646 3 30 25 c17 14 36 36 42
49 9 18 12 180 12 591 l0 566 450 0 450 0 0 -569 c0 -556 0 -570 20 -603 41
-66 31 -65 750 -62 l646 3 29 23 c17 13 35 33 42 45 9 17 12 311 13 1275 l0
1253 -24 47 c-18 36 -53 71 -141 142 -64 52 -122 100 -128 105 -27 23 -86 72
-128 106 -24 20 -150 124 -280 230 -129 107 -252 208 -273 224 -42 33 -54 43
-196 161 -52 44 -156 129 -230 189 -74 60 -146 119 -160 131 -62 56 -278 229
-304 245 -37 23 -142 20 -179 -4 -20 -13 -336 -270 -399 -325 -16 -13 -26 -6
-115 85 -54 55 -111 109 -128 121 l-29 20 26 88 c41 142 320 1057 323 1061 0
1 23 5 51 7 135 14 235 48 387 133 91 50 232 200 295 313 35 62 87 195 96 244
31 173 22 327 -30 479 -104 305 -381 537 -699 586 -73 11 -213 11 -275 0z
m-583 -1387 c31 -45 138 -157 177 -185 18 -13 18 -17 -12 -113 -17 -54 -47
-153 -67 -219 -20 -66 -54 -176 -75 -245 -21 -69 -71 -234 -112 -366 l-73
-242 -32 0 c-71 0 -234 -38 -313 -73 l-45 -20 -170 174 c-93 96 -284 291 -422
432 -139 142 -253 261 -253 265 0 4 11 32 25 63 25 58 50 144 61 212 3 22 7
41 9 43 3 3 875 224 930 236 11 3 90 23 175 45 85 22 157 40 160 40 3 0 19
-21 37 -47z"/>
</g>
</svg>
