<?xml version="1.0" standalone="no"?>
<!DOCTYPE svg PUBLIC "-//W3C//DTD SVG 20010904//EN"
 "http://www.w3.org/TR/2001/REC-SVG-20010904/DTD/svg10.dtd">
<svg version="1.0" xmlns="http://www.w3.org/2000/svg"
 width="700.000000pt" height="700.000000pt" viewBox="0 0 700.000000 700.000000"
 preserveAspectRatio="xMidYMid meet">
<metadata>
Created by potrace 1.14, written by Peter Selinger 2001-2017
</metadata>
<g transform="translate(0.000000,700.000000) scale(0.100000,-0.100000)"
fill="#000000" stroke="none">
<path d="M3384 6981 c-29 -10 -68 -30 -89 -44 -29 -20 -1138 -1108 -1286
-1262 -43 -45 -47 -55 -21 -55 34 0 175 -41 237 -69 121 -55 273 -179 323
-263 9 -16 20 -28 23 -28 9 0 1203 301 1205 303 1 1 13 44 28 96 80 283 267
484 541 580 32 11 60 22 62 24 3 4 -500 508 -624 626 -106 101 -270 138 -399
92z"/>
<path d="M5380 5239 c-78 -312 -375 -568 -699 -605 -51 -5 -64 -11 -71 -28 -5
-11 -53 -165 -106 -341 -53 -176 -122 -407 -155 -513 -32 -106 -59 -197 -59
-201 0 -4 20 -22 45 -40 64 -46 160 -145 205 -210 112 -166 165 -344 162 -547
-2 -217 -89 -431 -243 -598 -30 -33 -53 -64 -51 -70 1 -6 80 -167 175 -358
l172 -346 95 1 c116 1 171 -7 275 -38 289 -88 510 -340 565 -647 12 -65 14
-199 4 -253 -30 -167 -79 -281 -169 -400 l-35 -46 578 3 577 3 66 32 c114 57
196 161 218 277 14 73 10 3302 -4 3361 -26 112 -33 121 -794 874 -399 396
-729 722 -733 726 -4 4 -12 -13 -18 -36z"/>
<path d="M3292 4870 c-321 -82 -585 -150 -586 -152 -1 -1 -10 -37 -19 -80 -8
-42 -27 -105 -41 -140 -14 -34 -26 -68 -28 -74 -2 -9 623 -658 761 -789 l33
-32 58 23 c90 37 197 61 271 63 37 1 43 10 65 100 2 9 40 135 85 281 44 146
111 366 149 490 l68 225 -67 62 c-37 34 -85 86 -106 117 -21 31 -43 56 -49 55
-6 0 -273 -67 -594 -149z"/>
<path d="M588 4271 c-474 -473 -488 -489 -513 -597 -15 -61 -18 -3284 -4
-3362 22 -115 106 -222 219 -276 l65 -31 1963 -3 1962 -2 -59 86 c-113 163
-157 316 -148 513 8 179 59 320 166 462 l51 66 -186 369 -185 369 -117 1
c-172 1 -314 39 -454 121 l-58 34 -163 -143 c-89 -78 -177 -156 -195 -173 -19
-16 -40 -34 -48 -38 -10 -6 -14 -28 -14 -79 0 -330 -310 -575 -625 -493 -306
80 -466 417 -331 700 100 210 316 320 556 282 l45 -7 115 101 c188 166 243
215 283 250 l37 34 -20 65 c-11 36 -20 75 -20 88 0 27 -22 37 -100 45 -30 4
-102 13 -160 21 -58 8 -125 17 -150 20 -25 3 -94 12 -155 21 -167 23 -246 34
-295 40 -25 4 -56 8 -70 10 -14 2 -48 6 -75 10 l-50 6 -43 -65 c-114 -173
-313 -311 -507 -350 -16 -4 -41 -9 -55 -12 -51 -11 -227 -5 -298 10 -157 34
-299 111 -412 226 -313 315 -324 815 -24 1139 112 121 225 191 381 236 165 48
333 44 500 -14 254 -87 457 -305 524 -561 18 -73 10 -68 149 -84 30 -4 100
-13 155 -21 55 -8 123 -17 150 -20 28 -3 64 -8 80 -10 17 -3 48 -7 70 -10 22
-3 70 -10 108 -15 37 -6 89 -12 115 -15 26 -3 57 -8 68 -10 12 -2 48 -6 80
-10 33 -4 66 -9 75 -11 9 -3 20 5 26 19 12 26 28 8 -548 595 -208 213 -242
243 -262 237 -157 -51 -308 -69 -417 -50 -337 58 -596 281 -684 589 -14 48
-26 101 -26 117 0 15 -3 29 -7 31 -5 2 -214 -201 -465 -451z"/>
</g>
</svg>
