<svg viewBox="0 0 400 400" aria-hidden="true">
      <g fill='currentColor' fillOpacity="0.5">
        <path d="M60.19,129.786 C62.223,154.36 83.178,172.297 107.319,172.909 C113.832,172.909 120.225,171.581 126.155,169.006 L171.847,215.667 C171.407,216.449 170.986,217.24 170.59,218.043 L110.793,209.985 C106.676,187.856 87.243,171.349 64.228,171.349 C38.07,171.349 16.856,192.566 16.855,218.722 C16.856,244.876 38.07,266.095 64.228,266.095 C81.814,266.095 97.77,256.375 105.95,241.168 L165.758,249.223 C166.304,252.812 167.221,256.335 168.497,259.732 L143.408,281.822 C140.784,281.056 138.057,280.665 135.304,280.665 C119.343,280.665 106.397,293.613 106.397,309.574 C106.397,325.533 119.343,338.479 135.304,338.479 C151.26,338.479 164.206,325.533 164.206,309.574 C164.206,308.313 164.124,307.056 163.96,305.81 L188.044,284.601 C196.711,290.528 206.953,293.707 217.565,293.707 C219.651,293.707 221.739,293.583 223.81,293.335 L245.079,335.789 C236.908,344.521 232.308,356.027 232.308,368.142 C232.301,380.604 236.829,390.557 244.627,400 L25.874,400 C13.634,400 3.711,390.077 3.711,377.837 L3.711,194.92 C3.711,189.001 6.078,183.328 10.285,179.165 L60.19,129.786 z"/>
      </g>
      <g fill='currentColor' fillOpacity="0.5">
        <path d="M308.102,98.412 L389.715,179.165 C393.922,183.328 396.289,189.001 396.289,194.92 L396.289,377.837 C396.289,390.077 386.366,400 374.126,400 L313.703,400 C321.716,391.135 325.721,380.003 326.021,368.142 C326.022,341.983 304.805,320.767 278.649,320.767 C276.425,320.767 274.206,320.921 272.007,321.233 L251.512,280.319 C262.538,270.437 268.938,256.323 268.938,241.296 C268.938,223.395 259.839,206.933 245.079,197.342 L263.797,135.661 C284.845,134.686 303.93,119.34 308.102,98.412 z"/>
        <path d="M222.558,113.178 C225.728,118.311 229.853,122.802 234.701,126.395 L215.725,188.919 C208.458,189.172 201.365,190.918 194.847,194.057 L149.28,147.53 C152.089,142.185 153.838,136.37 154.449,130.356 L222.558,113.178 z"/>
        <path d="M200.516,0 L202.629,0.05 C207.875,0.561 212.242,2.9 216.108,6.359 L252.288,42.159 C232.964,46.857 219.012,62.448 215.94,82 L146.852,99.424 C138.888,87.343 126.215,80.259 112.047,78.475 L184.93,6.359 C188.604,2.811 193.3,0.539 198.408,0.05 L200.516,0 z"/>
      </g>
      <g fill='currentColor'>
        <path d="M60.19,129.786 C62.223,154.36 83.178,172.297 107.319,172.909 C113.832,172.909 120.225,171.581 126.155,169.006 L171.847,215.667 C171.407,216.449 170.986,217.24 170.59,218.043 L110.793,209.985 C106.676,187.856 87.243,171.349 64.228,171.349 C38.07,171.349 16.856,192.566 16.855,218.722 C16.856,244.876 38.07,266.095 64.228,266.095 C81.814,266.095 97.77,256.375 105.95,241.168 L165.758,249.223 C166.304,252.812 167.221,256.335 168.497,259.732 L143.408,281.822 C140.784,281.056 138.057,280.665 135.304,280.665 C119.343,280.665 106.397,293.613 106.397,309.574 C106.397,325.533 119.343,338.479 135.304,338.479 C151.26,338.479 164.206,325.533 164.206,309.574 C164.206,308.313 164.124,307.056 163.96,305.81 L188.044,284.601 C196.711,290.528 206.953,293.707 217.565,293.707 C219.651,293.707 221.739,293.583 223.81,293.335 L245.078,335.789 C236.908,344.521 232.308,356.027 232.308,368.142 C232.301,380.604 236.829,390.557 244.627,400 L25.874,400 C13.634,400 3.711,390.077 3.711,377.837 L3.711,194.92 C3.711,189.001 6.078,183.328 10.285,179.165 L60.19,129.786 z M114.505,260.482 C105.513,271.915 91.664,279.806 77.522,282.731 C71.37,284.003 69.59,283.911 64.228,284.095 C48.444,284.18 33.77,278.246 21.711,268.294 L21.711,377.837 C21.711,380.136 23.575,382 25.874,382 L215.797,382 C214.685,377.458 214.407,372.796 214.308,368.142 C214.383,356.119 217.587,344.152 224.03,333.96 L212.777,311.498 C205.109,311.183 197.717,309.107 190.619,306.318 L181.945,313.956 C179.901,338.213 159.105,355.877 135.304,356.479 C109.402,356.479 88.397,335.475 88.397,309.574 C88.727,284.389 107.153,265.336 131.905,262.826 L114.505,260.482 z M124.247,192.785 C124.429,193.162 124.293,192.871 124.6,193.683 L125.207,193.765 L124.247,192.785 z"/>
      </g>
      <g fill='currentColor'>
        <path d="M308.102,98.412 L389.714,179.165 C393.922,183.328 396.289,189.001 396.289,194.92 L396.289,377.837 C396.289,390.077 386.366,400 374.126,400 L313.703,400 C321.716,391.135 325.721,380.003 326.021,368.142 C326.022,341.983 304.805,320.767 278.649,320.767 C276.425,320.767 274.206,320.921 272.007,321.233 L251.512,280.319 C262.538,270.437 268.938,256.323 268.938,241.296 C268.938,223.395 259.839,206.933 245.079,197.342 L263.797,135.661 C284.845,134.686 303.93,119.34 308.102,98.412 z M313.188,128.766 C304.115,139.605 291.792,148.591 277.753,151.66 L265.797,191.055 C279.667,204.909 286.324,221.841 286.938,241.296 C286.968,256.463 281.936,270.931 273.051,283.128 L282.981,302.95 C317.99,305.901 343.137,333.165 344.021,368.142 C344.021,368.294 344.02,368.446 344.016,368.598 C344.009,373.126 343.239,377.575 342.371,382 L374.126,382 C376.425,382 378.289,380.136 378.289,377.837 L378.289,194.92 C378.289,193.808 377.845,192.742 377.054,191.96 L313.188,128.766 z"/>
        <path d="M222.558,113.177 C225.728,118.311 229.853,122.802 234.701,126.395 L215.725,188.919 C208.458,189.172 201.365,190.918 194.847,194.057 L149.279,147.529 C152.089,142.185 153.838,136.37 154.449,130.356 L222.558,113.177 z M213.58,134.005 L171.599,144.594 L199.687,173.274 L201.821,172.748 L213.58,134.005 z"/>
        <path d="M200.516,-0 L202.629,0.05 C207.875,0.561 212.242,2.9 216.108,6.359 L252.288,42.159 C232.964,46.857 219.012,62.448 215.94,82 L146.852,99.424 C138.888,87.343 126.215,80.259 112.047,78.475 L184.93,6.359 C188.604,2.811 193.3,0.539 198.408,0.05 L200.516,-0 z M200.517,18.005 L199.847,18.021 C198.902,18.113 198.144,18.714 197.446,19.296 L144.398,71.787 C150.858,76.679 148.575,74.688 153.321,79.229 L201.185,67.158 C205.292,55.517 212.471,45.333 222.028,37.539 L203.91,19.613 C203.117,18.9 202.216,18.238 201.153,18.02 L200.517,18.005 z"/>
      </g>
    </svg>