<?xml version="1.0" encoding="UTF-8"?>
<!DOCTYPE svg PUBLIC "-//W3C//DTD SVG 1.1//EN" "http://www.w3.org/Graphics/SVG/1.1/DTD/svg11.dtd">
<svg version="1.1" xmlns="http://www.w3.org/2000/svg" xmlns:xlink="http://www.w3.org/1999/xlink" x="0" y="0" width="80" height="80" viewBox="0, 0, 40, 40">
  <g id="Layer_1">
    <path d="M18.13,9.547 C18.065,10.19 17.878,10.811 17.578,11.381 L22.444,16.35 C23.141,16.015 23.898,15.828 24.674,15.801 L26.701,9.124 C26.183,8.741 25.742,8.261 25.404,7.713 L18.13,9.547 z M17.319,6.244 L24.697,4.383 C25.028,1.903 27.154,0 29.711,0 C32.505,0 34.77,2.266 34.77,5.059 C34.77,7.783 32.616,10.005 29.919,10.114 L27.92,16.701 C29.496,17.725 30.468,19.483 30.468,21.395 C30.468,23 29.784,24.507 28.607,25.562 L30.795,29.931 C31.03,29.898 31.267,29.882 31.505,29.882 C34.298,29.882 36.563,32.147 36.563,34.941 C36.563,37.734 34.298,40 31.505,40 C28.711,40 26.445,37.734 26.445,34.941 C26.445,33.647 26.936,32.418 27.809,31.486 L25.538,26.952 C25.316,26.979 25.093,26.992 24.871,26.992 C23.737,26.992 22.644,26.652 21.718,26.019 L19.146,28.284 C19.163,28.417 19.172,28.552 19.172,28.686 C19.172,30.391 17.79,31.773 16.086,31.773 C14.381,31.773 12.999,30.391 12.999,28.686 C12.999,26.982 14.381,25.599 16.086,25.599 C16.38,25.599 16.671,25.641 16.951,25.723 L19.631,23.364 C19.494,23.001 19.396,22.625 19.338,22.241 L12.951,21.381 C12.078,23.005 10.374,24.043 8.496,24.043 C5.702,24.043 3.437,21.777 3.437,18.984 C3.437,16.191 5.702,13.925 8.496,13.925 C10.953,13.925 13.029,15.688 13.468,18.051 L19.854,18.912 C19.896,18.826 19.941,18.741 19.988,18.658 L15.109,13.675 C14.476,13.95 13.793,14.092 13.097,14.092 C10.304,14.092 8.038,11.826 8.038,9.032 C8.038,6.239 10.304,3.974 13.097,3.974 C14.812,3.973 16.39,4.838 17.319,6.244 z" fill="#EA9122"/>
  </g>
</svg>
