<svg viewBox="0 0 32 32" aria-hidden="true">
    <path fillRule="evenodd" clipRule="evenodd"
        d="M23.013,0 C25.89,-0 28.224,2.333 28.224,5.21 C28.209,7.495 26.637,9.691 24.372,10.237 L23.507,13.09 C24.571,14.166 25.069,15.51 25.116,17.007 C25.109,18.167 24.758,19.31 24.073,20.25 L24.752,21.603 C27.496,21.851 29.45,24.068 29.518,26.79 C29.518,29.667 27.185,32 24.308,32 C21.431,32 19.097,29.667 19.097,26.79 C19.112,25.872 19.327,24.928 19.822,24.144 L19.04,22.582 C18.502,22.547 17.974,22.413 17.474,22.217 L16.931,22.694 C16.738,24.641 15.084,26.011 13.173,26.059 C11.083,26.059 9.387,24.363 9.387,22.273 C9.405,21.353 9.718,20.379 10.382,19.715 C9.579,20.241 8.639,20.444 7.692,20.477 C4.815,20.477 2.482,18.143 2.482,15.266 C2.508,12.872 4.021,10.956 6.283,10.253 C5.954,9.572 5.824,8.83 5.805,8.08 C5.805,5.203 8.138,2.869 11.015,2.869 C12.418,2.88 13.586,3.386 14.613,4.322 L18.115,3.439 C18.804,1.353 20.878,0.049 23.013,0 z M23.013,1.557 C21.167,1.557 19.631,2.931 19.392,4.723 L14.064,6.067 C13.393,5.051 12.253,4.427 11.015,4.427 C8.998,4.427 7.362,6.063 7.362,8.08 C7.362,10.097 8.998,11.733 11.015,11.733 C11.517,11.733 12.011,11.631 12.468,11.433 L15.991,15.031 C15.958,15.091 15.925,15.152 15.895,15.214 L11.283,14.592 C10.966,12.886 9.467,11.613 7.692,11.613 C5.675,11.613 4.039,13.249 4.039,15.266 C4.039,17.283 5.675,18.92 7.692,18.92 C9.048,18.92 10.279,18.17 10.91,16.997 L15.522,17.619 C15.564,17.895 15.635,18.167 15.733,18.429 L13.798,20.133 C13.596,20.074 13.386,20.043 13.173,20.043 C11.942,20.043 10.944,21.042 10.944,22.273 C10.944,23.503 11.942,24.502 13.173,24.502 C14.404,24.502 15.402,23.503 15.402,22.273 C15.402,22.175 15.396,22.079 15.383,21.983 L17.241,20.347 C17.909,20.804 18.699,21.049 19.517,21.049 C19.678,21.049 19.839,21.04 19.999,21.021 L21.639,24.295 C21.009,24.968 20.654,25.855 20.654,26.79 C20.654,28.807 22.291,30.443 24.308,30.443 C26.325,30.443 27.961,28.807 27.961,26.79 C27.961,24.772 26.325,23.136 24.308,23.136 C24.136,23.136 23.965,23.148 23.796,23.172 L22.215,20.017 C23.066,19.255 23.559,18.166 23.559,17.007 C23.559,15.627 22.857,14.357 21.719,13.618 L23.163,8.861 C25.111,8.782 26.666,7.178 26.666,5.21 C26.666,3.193 25.03,1.557 23.013,1.557 z M19.903,7.127 C20.147,7.523 20.465,7.869 20.839,8.146 L19.376,12.968 C18.815,12.987 18.268,13.122 17.765,13.364 L14.251,9.776 C14.468,9.364 14.603,8.916 14.65,8.452 L19.903,7.127 z M18.962,8.97 L16.299,9.642 L18.176,11.558 L18.962,8.97 z M11.635,18.666 L11.36,18.953 C11.535,18.852 11.718,18.764 11.911,18.704 L11.635,18.666 z"
        fill="#ea9122" />
</svg>