<svg xmlns="http://www.w3.org/2000/svg" x="0" y="0" width="92" height="32" viewBox="0, 0, 92, 32" fill="none">
  <path d="M33.137,18.73 C33.056,19.914 32.595,20.856 31.752,21.557 C30.909,22.258 29.811,22.607 28.458,22.607 C26.896,22.607 25.682,22.122 24.818,21.16 C23.949,20.195 23.518,18.842 23.518,17.101 C23.518,15.323 23.961,13.963 24.841,13.017 C25.724,12.071 26.993,11.6 28.65,11.6 C29.996,11.6 31.057,11.924 31.838,12.574 C32.616,13.224 33.047,14.143 33.121,15.331 L30.983,15.331 C30.892,14.738 30.647,14.288 30.253,13.98 C29.857,13.67 29.322,13.514 28.65,13.514 C27.695,13.514 26.97,13.819 26.474,14.43 C25.978,15.039 25.728,15.93 25.728,17.101 C25.728,18.236 25.974,19.114 26.467,19.734 C26.963,20.355 27.665,20.662 28.578,20.662 C29.236,20.662 29.776,20.494 30.195,20.166 C30.616,19.83 30.888,19.354 31.011,18.73 L33.137,18.73 L33.137,18.73 z M34.662,25.41 L34.662,23.74 C34.727,23.749 34.799,23.76 34.867,23.766 C34.94,23.77 35.032,23.773 35.146,23.773 C35.558,23.773 35.864,23.676 36.07,23.48 C36.277,23.29 36.378,23.002 36.378,22.621 C36.378,22.594 36.374,22.557 36.363,22.516 C36.353,22.47 36.343,22.438 36.334,22.405 L33.531,14.605 L35.818,14.605 L37.458,20.168 L39.054,14.605 L41.243,14.605 L38.046,23.701 C37.807,24.378 37.509,24.847 37.149,25.091 C36.793,25.341 36.255,25.463 35.539,25.463 C35.41,25.463 35.273,25.459 35.125,25.449 C34.979,25.439 34.821,25.425 34.662,25.41 L34.662,25.41 z M45.933,22.37 C45.743,22.375 45.516,22.384 45.249,22.395 C44.985,22.412 44.818,22.417 44.747,22.417 C43.947,22.417 43.403,22.267 43.111,21.973 C42.817,21.674 42.671,21.093 42.671,20.223 L42.671,16.054 L41.64,16.054 L41.64,14.604 L42.671,14.604 L42.671,12.5 L44.733,12.5 L44.733,14.604 L45.933,14.604 L45.933,16.054 L44.733,16.054 L44.733,20.321 C44.733,20.528 44.78,20.659 44.87,20.724 C44.96,20.786 45.145,20.82 45.425,20.82 L45.933,20.82 L45.933,22.37 L45.933,22.37 L45.933,22.37 z M48.813,18.447 C48.813,19.214 48.968,19.807 49.288,20.221 C49.608,20.639 50.06,20.845 50.643,20.845 C51.219,20.845 51.668,20.638 51.987,20.221 C52.307,19.807 52.461,19.214 52.461,18.447 C52.461,17.689 52.309,17.101 51.991,16.687 C51.679,16.274 51.229,16.067 50.643,16.067 C50.06,16.067 49.608,16.274 49.288,16.687 C48.967,17.101 48.813,17.689 48.813,18.447 L48.813,18.447 z M46.7,18.447 C46.7,17.168 47.052,16.161 47.754,15.429 C48.456,14.693 49.415,14.328 50.645,14.328 C51.869,14.328 52.827,14.693 53.532,15.429 C54.236,16.161 54.589,17.168 54.589,18.447 C54.589,19.736 54.236,20.744 53.532,21.477 C52.828,22.209 51.869,22.575 50.645,22.575 C49.415,22.575 48.456,22.209 47.754,21.477 C47.052,20.744 46.7,19.736 46.7,18.447 z" fill="#737373"/>
  <path d="M55.1,19.716 L56.335,19.716 C56.386,20.228 56.571,20.621 56.9,20.887 C57.224,21.149 57.687,21.283 58.29,21.283 C58.841,21.283 59.279,21.177 59.602,20.958 C59.919,20.745 60.079,20.451 60.079,20.079 C60.079,19.796 59.998,19.582 59.838,19.433 C59.681,19.286 59.367,19.155 58.904,19.047 L57.466,18.68 C56.654,18.487 56.094,18.23 55.774,17.908 C55.46,17.591 55.299,17.137 55.299,16.543 C55.299,15.875 55.557,15.342 56.066,14.947 C56.58,14.552 57.283,14.355 58.176,14.355 C59.087,14.355 59.81,14.566 60.35,14.987 C60.889,15.406 61.159,15.972 61.159,16.682 L61.159,16.709 L59.905,16.709 C59.878,16.307 59.711,15.995 59.409,15.776 C59.104,15.556 58.696,15.446 58.174,15.446 C57.653,15.446 57.262,15.535 56.991,15.715 C56.721,15.896 56.585,16.158 56.585,16.505 C56.585,16.751 56.67,16.944 56.84,17.079 C57.009,17.221 57.323,17.341 57.789,17.444 L59.031,17.739 C59.918,17.946 60.529,18.212 60.866,18.533 C61.197,18.86 61.364,19.321 61.364,19.923 C61.364,20.714 61.084,21.322 60.525,21.761 C59.965,22.2 59.181,22.421 58.176,22.421 C57.192,22.421 56.434,22.186 55.911,21.724 C55.385,21.259 55.114,20.588 55.1,19.716 L55.1,19.716 z M67.537,17.115 C67.5,16.594 67.307,16.194 66.969,15.909 C66.626,15.629 66.163,15.489 65.567,15.489 C64.87,15.489 64.332,15.74 63.955,16.236 C63.577,16.729 63.387,17.439 63.387,18.365 C63.387,19.288 63.57,20.002 63.934,20.5 C64.298,21.004 64.817,21.256 65.481,21.256 C66.084,21.256 66.564,21.1 66.923,20.795 C67.284,20.485 67.509,20.037 67.594,19.454 L68.822,19.454 C68.76,20.384 68.426,21.109 67.829,21.634 C67.236,22.157 66.434,22.419 65.424,22.419 C64.377,22.419 63.554,22.063 62.954,21.349 C62.354,20.634 62.055,19.653 62.055,18.41 C62.055,17.138 62.366,16.144 62.991,15.422 C63.616,14.701 64.476,14.34 65.567,14.34 C66.534,14.34 67.3,14.588 67.884,15.087 C68.461,15.585 68.772,16.26 68.808,17.115 L67.536,17.115 L67.537,17.115 L67.537,17.115 z M74.432,21.17 C74.029,21.583 73.6,21.898 73.151,22.104 C72.699,22.311 72.224,22.419 71.717,22.419 C70.937,22.419 70.324,22.212 69.886,21.81 C69.446,21.403 69.229,20.846 69.229,20.134 C69.229,19.445 69.442,18.905 69.875,18.509 C70.308,18.117 70.964,17.864 71.846,17.752 C72.068,17.723 72.374,17.694 72.754,17.653 C73.408,17.586 73.811,17.519 73.954,17.457 C74.105,17.404 74.203,17.329 74.254,17.237 C74.297,17.145 74.32,16.946 74.32,16.635 C74.32,16.249 74.179,15.959 73.895,15.764 C73.607,15.571 73.176,15.475 72.597,15.475 C72.004,15.475 71.555,15.592 71.248,15.829 C70.948,16.066 70.794,16.417 70.794,16.878 L69.58,16.878 L69.58,16.82 C69.58,16.056 69.851,15.449 70.396,15.004 C70.94,14.56 71.686,14.34 72.643,14.34 C73.665,14.34 74.417,14.531 74.907,14.909 C75.388,15.291 75.632,15.886 75.632,16.694 L75.632,20.494 C75.632,20.82 75.666,21.029 75.738,21.123 C75.81,21.217 75.937,21.268 76.125,21.268 C76.165,21.268 76.209,21.266 76.264,21.259 C76.323,21.252 76.384,21.241 76.461,21.222 L76.461,22.21 C76.308,22.254 76.167,22.283 76.054,22.299 C75.933,22.321 75.822,22.327 75.717,22.327 C75.287,22.327 74.97,22.236 74.751,22.051 C74.538,21.861 74.432,21.583 74.432,21.211 L74.432,21.17 L74.432,21.17 L74.432,21.17 z M74.307,18.317 C73.961,18.5 73.375,18.648 72.542,18.751 C72.242,18.788 72.025,18.82 71.874,18.843 C71.408,18.918 71.07,19.054 70.866,19.251 C70.663,19.454 70.56,19.741 70.56,20.119 C70.56,20.496 70.679,20.786 70.918,20.993 C71.153,21.195 71.496,21.296 71.939,21.296 C72.634,21.296 73.199,21.123 73.644,20.776 C74.086,20.435 74.306,19.994 74.306,19.454 L74.307,18.317 L74.307,18.317 z M78.444,18.436 C78.444,19.385 78.634,20.095 79.017,20.57 C79.395,21.043 79.962,21.283 80.72,21.283 C81.448,21.283 82.006,21.02 82.397,20.496 C82.794,19.975 82.99,19.233 82.99,18.278 C82.99,17.412 82.788,16.73 82.379,16.236 C81.968,15.74 81.412,15.489 80.706,15.489 C79.98,15.489 79.422,15.745 79.033,16.254 C78.639,16.766 78.444,17.494 78.444,18.436 L78.444,18.436 z M77.231,25.219 L77.231,14.586 L78.491,14.586 L78.491,15.659 C78.805,15.207 79.165,14.871 79.566,14.66 C79.964,14.446 80.435,14.341 80.989,14.341 C82.008,14.341 82.821,14.703 83.431,15.432 C84.036,16.16 84.343,17.136 84.343,18.36 C84.343,19.598 84.033,20.584 83.421,21.317 C82.805,22.054 81.99,22.419 80.969,22.419 C80.429,22.419 79.959,22.323 79.554,22.127 C79.144,21.936 78.789,21.645 78.491,21.255 L78.491,25.219 L77.231,25.219 L77.231,25.219 z M86.44,17.694 L90.647,17.694 C90.642,16.985 90.462,16.438 90.103,16.054 C89.746,15.668 89.236,15.475 88.58,15.475 C87.946,15.475 87.442,15.664 87.079,16.04 C86.716,16.422 86.503,16.971 86.44,17.694 L86.44,17.694 z M90.622,19.73 L91.894,19.73 C91.752,20.565 91.386,21.225 90.792,21.71 C90.195,22.19 89.445,22.433 88.539,22.433 C87.476,22.433 86.632,22.079 86.02,21.37 C85.405,20.66 85.094,19.69 85.094,18.469 C85.094,17.17 85.402,16.16 86.008,15.432 C86.62,14.703 87.465,14.34 88.539,14.34 C89.639,14.34 90.489,14.676 91.095,15.347 C91.699,16.017 92,16.966 92,18.192 C92,18.344 92,18.463 91.998,18.534 C91.995,18.61 91.989,18.686 91.98,18.758 L86.447,18.758 C86.461,19.557 86.665,20.178 87.05,20.616 C87.434,21.05 87.971,21.271 88.66,21.271 C89.186,21.271 89.619,21.134 89.957,20.866 C90.3,20.6 90.523,20.221 90.622,19.73 z" fill="#737373"/>
  <path d="M11.755,7.638 C11.703,8.152 11.553,8.649 11.313,9.105 L15.206,13.08 C15.763,12.812 16.369,12.663 16.99,12.641 L18.611,7.3 C18.197,6.993 17.845,6.609 17.574,6.17 L11.755,7.638 z M11.106,4.995 L17.008,3.507 C17.273,1.522 18.974,0 21.02,0 C23.255,0 25.067,1.813 25.067,4.047 C25.067,6.226 23.343,8.004 21.186,8.091 L19.586,13.361 C20.847,14.18 21.625,15.587 21.625,17.116 C21.625,18.4 21.078,19.606 20.136,20.45 L21.887,23.945 C22.075,23.919 22.264,23.905 22.454,23.905 C24.689,23.905 26.502,25.718 26.502,27.953 C26.502,30.187 24.689,32 22.454,32 C20.219,32 18.407,30.187 18.407,27.953 C18.407,26.918 18.8,25.935 19.498,25.189 L17.681,21.562 C17.504,21.583 17.325,21.594 17.147,21.594 C16.241,21.594 15.366,21.322 14.625,20.816 L12.568,22.628 C12.582,22.734 12.589,22.841 12.589,22.949 C12.589,24.313 11.483,25.419 10.119,25.419 C8.756,25.419 7.65,24.313 7.65,22.949 C7.65,21.586 8.756,20.479 10.119,20.479 C10.355,20.479 10.588,20.513 10.812,20.578 L12.955,18.691 C12.846,18.401 12.768,18.1 12.721,17.793 L7.612,17.105 C6.913,18.404 5.55,19.235 4.047,19.235 C1.812,19.235 -0,17.422 -0,15.187 C-0,12.953 1.812,11.14 4.047,11.14 C6.013,11.14 7.674,12.55 8.025,14.441 L13.134,15.129 C13.168,15.061 13.204,14.993 13.241,14.926 L9.338,10.94 C8.831,11.16 8.285,11.273 7.729,11.273 C5.494,11.273 3.681,9.461 3.681,7.226 C3.681,4.992 5.494,3.179 7.729,3.179 C9.1,3.179 10.363,3.871 11.106,4.995 z" fill="#737373"/>
  <path d="M45.142,24 Q46.585,24 47.382,24.76 Q48.178,25.52 48.266,26.487 L47.263,26.487 Q47.092,25.753 46.583,25.324 Q46.073,24.895 45.153,24.895 Q44.031,24.895 43.34,25.683 Q42.65,26.472 42.65,28.101 Q42.65,29.435 43.273,30.265 Q43.896,31.095 45.132,31.095 Q46.27,31.095 46.864,30.221 Q47.18,29.761 47.335,29.011 L48.338,29.011 Q48.204,30.211 47.449,31.023 Q46.544,32 45.008,32 Q43.684,32 42.784,31.198 Q41.6,30.138 41.6,27.925 Q41.6,26.244 42.489,25.169 Q43.451,24 45.142,24 z" fill="#737373"/>
  <path d="M51.987,31.392 Q52.679,31.392 52.937,30.868 Q53.194,30.343 53.194,29.701 Q53.194,29.12 53.008,28.756 Q52.714,28.183 51.994,28.183 Q51.356,28.183 51.065,28.671 Q50.775,29.159 50.775,29.848 Q50.775,30.51 51.065,30.951 Q51.356,31.392 51.987,31.392 z M52.014,27.575 Q52.815,27.575 53.368,28.11 Q53.922,28.644 53.922,29.681 Q53.922,30.684 53.434,31.338 Q52.947,31.992 51.921,31.992 Q51.065,31.992 50.562,31.414 Q50.059,30.835 50.059,29.859 Q50.059,28.814 50.589,28.195 Q51.119,27.575 52.014,27.575 z" fill="#737373"/>
  <path d="M55.643,27.695 L56.304,27.695 L56.304,28.284 Q56.599,27.92 56.928,27.761 Q57.257,27.603 57.659,27.603 Q58.542,27.603 58.852,28.218 Q59.022,28.555 59.022,29.182 L59.022,31.841 L58.314,31.841 L58.314,29.228 Q58.314,28.849 58.201,28.617 Q58.015,28.23 57.528,28.23 Q57.28,28.23 57.121,28.28 Q56.835,28.365 56.618,28.621 Q56.444,28.826 56.392,29.045 Q56.339,29.263 56.339,29.67 L56.339,31.841 L55.643,31.841 z" fill="#737373"/>
  <path d="M61.399,30.541 Q61.43,30.889 61.573,31.075 Q61.836,31.412 62.486,31.412 Q62.873,31.412 63.168,31.243 Q63.462,31.075 63.462,30.723 Q63.462,30.455 63.226,30.316 Q63.075,30.231 62.63,30.119 L62.076,29.979 Q61.546,29.848 61.294,29.685 Q60.845,29.403 60.845,28.903 Q60.845,28.315 61.269,27.951 Q61.693,27.587 62.409,27.587 Q63.346,27.587 63.76,28.137 Q64.019,28.485 64.011,28.888 L63.353,28.888 Q63.334,28.652 63.187,28.458 Q62.947,28.183 62.355,28.183 Q61.96,28.183 61.757,28.334 Q61.553,28.485 61.553,28.733 Q61.553,29.004 61.821,29.166 Q61.975,29.263 62.277,29.337 L62.738,29.449 Q63.489,29.631 63.744,29.801 Q64.151,30.068 64.151,30.641 Q64.151,31.195 63.731,31.597 Q63.311,32 62.451,32 Q61.526,32 61.141,31.58 Q60.756,31.16 60.729,30.541 z" fill="#737373"/>
  <path d="M67.799,31.392 Q68.492,31.392 68.749,30.868 Q69.007,30.343 69.007,29.701 Q69.007,29.12 68.821,28.756 Q68.527,28.183 67.807,28.183 Q67.168,28.183 66.878,28.671 Q66.588,29.159 66.588,29.848 Q66.588,30.51 66.878,30.951 Q67.168,31.392 67.799,31.392 z M67.826,27.575 Q68.628,27.575 69.181,28.11 Q69.735,28.644 69.735,29.681 Q69.735,30.684 69.247,31.338 Q68.759,31.992 67.733,31.992 Q66.878,31.992 66.375,31.414 Q65.871,30.835 65.871,29.859 Q65.871,28.814 66.402,28.195 Q66.932,27.575 67.826,27.575 z" fill="#737373"/>
  <path d="M71.455,27.695 L72.117,27.695 L72.117,28.412 Q72.198,28.203 72.516,27.903 Q72.833,27.603 73.247,27.603 Q73.267,27.603 73.313,27.606 Q73.36,27.61 73.472,27.622 L73.472,28.357 Q73.41,28.346 73.358,28.342 Q73.306,28.338 73.244,28.338 Q72.717,28.338 72.435,28.677 Q72.152,29.015 72.152,29.457 L72.152,31.841 L71.455,31.841 z" fill="#737373"/>
  <path d="M75.754,26.538 L76.458,26.538 L76.458,27.695 L77.12,27.695 L77.12,28.265 L76.458,28.265 L76.458,30.97 Q76.458,31.187 76.605,31.261 Q76.687,31.303 76.876,31.303 Q76.927,31.303 76.985,31.301 Q77.043,31.299 77.12,31.292 L77.12,31.841 Q77,31.876 76.871,31.892 Q76.741,31.907 76.59,31.907 Q76.102,31.907 75.928,31.657 Q75.754,31.408 75.754,31.009 L75.754,28.265 L75.193,28.265 L75.193,27.695 L75.754,27.695 z" fill="#737373"/>
  <path d="M78.841,27.715 L79.549,27.715 L79.549,31.841 L78.841,31.841 z M78.841,26.155 L79.549,26.155 L79.549,26.945 L78.841,26.945 z" fill="#737373"/>
  <path d="M81.982,27.695 L81.982,30.448 Q81.982,30.765 82.083,30.966 Q82.268,31.338 82.776,31.338 Q83.503,31.338 83.767,30.688 Q83.91,30.339 83.91,29.732 L83.91,27.695 L84.607,27.695 L84.607,31.841 L83.948,31.841 L83.956,31.23 Q83.821,31.466 83.619,31.628 Q83.221,31.954 82.652,31.954 Q81.765,31.954 81.444,31.361 Q81.27,31.044 81.27,30.514 L81.27,27.695 z" fill="#737373"/>
  <path d="M86.327,27.695 L87.016,27.695 L87.016,28.284 Q87.264,27.978 87.465,27.839 Q87.81,27.603 88.247,27.603 Q88.743,27.603 89.045,27.846 Q89.215,27.986 89.354,28.257 Q89.586,27.924 89.9,27.763 Q90.214,27.603 90.605,27.603 Q91.441,27.603 91.743,28.206 Q91.905,28.532 91.905,29.081 L91.905,31.841 L91.181,31.841 L91.181,28.961 Q91.181,28.547 90.974,28.392 Q90.767,28.237 90.469,28.237 Q90.059,28.237 89.763,28.512 Q89.466,28.787 89.466,29.43 L89.466,31.841 L88.758,31.841 L88.758,29.135 Q88.758,28.714 88.657,28.52 Q88.499,28.23 88.065,28.23 Q87.67,28.23 87.347,28.535 Q87.024,28.841 87.024,29.643 L87.024,31.841 L86.327,31.841 z" fill="#737373"/>
</svg>
