<svg viewBox="0 0 32 32" aria-hidden="true">
    <path fillRule="evenodd" clipRule="evenodd"
        d="M14.774,1 C21.322,1.016 26.534,4.704 29.056,10.682 C31.977,18.726 27.492,27.819 19.369,30.725 C18.625,30.991 17.807,30.604 17.541,29.86 C17.275,29.116 17.662,28.298 18.406,28.032 C25.059,25.652 28.74,18.189 26.368,11.659 C24.185,5.652 17.426,2.347 11.546,4.522 C6.184,6.505 3.256,12.559 5.233,17.79 C7.014,22.506 12.364,25.06 16.945,23.283 C21.017,21.702 23.198,17.058 21.621,13.127 C20.247,9.698 16.308,7.89 13.028,9.263 C10.239,10.43 8.801,13.661 9.965,16.289 C10.919,18.438 13.443,19.513 15.416,18.564 C16.932,17.833 17.649,16.023 16.93,14.705 C16.352,13.831 15.944,13.686 14.953,13.767 C15.882,14.267 15.579,13.923 15.983,14.678 C16.361,15.942 15.53,16.921 14.398,17.061 C13.74,17.143 12.983,16.955 12.486,16.526 C10.847,15.107 11.454,12.646 13.095,11.525 C15.263,10.047 18.202,11.064 19.44,13.335 C20.988,16.17 19.576,19.734 16.657,21.141 C13.166,22.82 8.934,21.017 7.351,17.448 C5.514,13.305 7.702,8.391 11.924,6.625 C16.718,4.618 22.323,7.191 24.276,12.063 C26.459,17.507 23.502,23.805 17.979,25.949 C11.885,28.313 4.889,24.973 2.557,18.801 C0.008,12.057 3.73,4.364 10.554,1.84 C12.858,1.125 11.468,1.476 14.774,1 z"
        fill="#000000" />
</svg>