<svg xmlns="http://www.w3.org/2000/svg" x="0" y="0" width="109.994" height="32" viewBox="0, 0, 109.994, 32" fill="none">
  <g>
    <path d="M13.149,10.562 C13.149,13.813 12.676,16.28 7.736,16.28 C2.797,16.28 2.064,13.907 2.064,10.562 L2.064,2.657 C2.064,0.877 1.306,0.709 -0,0.709 L-0,0.239 L6.241,0.239 L6.241,0.713 C4.96,0.713 4.177,0.877 4.177,2.661 L4.177,10.562 C4.177,12.985 4.746,15.353 7.831,15.353 C11.254,15.353 11.794,13.384 11.794,10.562 L11.794,2.657 C11.794,0.877 11.011,0.709 9.73,0.709 L9.73,0.239 L15.213,0.239 L15.213,0.713 C13.907,0.713 13.149,0.877 13.149,2.661 L13.149,10.562 z" fill="#737373"/>
    <path d="M26.274,15.642 C25.112,16.07 23.782,16.284 22.027,16.284 C17.281,16.284 15.003,12.676 15.003,7.621 C15.003,3.226 16.424,0 21.504,0 C23.403,0 25.018,0.379 26.064,0.663 L26.278,4.391 L25.685,4.391 C25.376,3.061 24.428,0.927 21.483,0.927 C17.664,0.927 17.355,4.985 17.355,7.432 C17.355,10.492 18.023,15.217 23.217,15.217 C24.807,15.217 25.66,14.863 26.278,14.624 L26.278,15.646 z" fill="#737373"/>
    <path d="M39.024,3.654 C38.809,2.398 37.858,0.923 35.32,0.923 C33.73,0.923 32.33,1.944 32.33,3.51 C32.33,5.623 35.156,6.311 37.219,7.522 C39.094,8.614 40.35,9.586 40.35,11.843 C40.35,14.855 37.738,16.28 34.488,16.28 C32.873,16.28 31.003,15.926 30.406,15.827 L30.237,12.482 L30.83,12.482 C31.02,13.738 32.136,15.213 34.674,15.213 C36.762,15.213 38.113,13.862 38.113,12.222 C38.113,9.66 34.175,8.877 31.967,7.193 C30.925,6.385 30.426,5.532 30.426,4.012 C30.43,1.162 32.783,0 35.769,0 C37.364,0 38.381,0.189 39.452,0.404 L39.617,3.654 L39.024,3.654 z" fill="#737373"/>
    <path d="M50.052,16.066 C49.8,16.128 49.269,16.255 48.511,16.255 C47.287,16.255 46.925,15.625 46.925,14.715 L46.88,14.715 C46.229,15.666 45.318,16.255 43.881,16.255 C42.443,16.255 41.347,15.242 41.347,13.87 C41.347,10.809 45.318,10.809 46.921,10.661 L46.921,9.862 C46.921,8.383 46.9,6.822 45.125,6.822 C43.815,6.822 43.646,7.37 43.646,8.045 C43.646,8.91 43.015,9.145 42.653,9.145 C42.08,9.145 41.64,8.766 41.64,8.194 C41.64,6.822 43.687,6.126 45.145,6.126 C48.037,6.126 48.564,7.518 48.564,9.483 L48.564,14.719 C48.564,15.456 48.816,15.712 49.475,15.712 C49.664,15.712 49.854,15.67 50.043,15.629 L50.043,16.07 z M46.925,11.357 C45.932,11.378 43.23,11.572 43.23,13.532 C43.23,14.628 43.951,15.37 44.667,15.37 C46.039,15.37 46.925,14.039 46.925,12.606 L46.925,11.357 z" fill="#737373"/>
    <path d="M50.517,15.687 C51.403,15.687 52.119,15.497 52.119,14.126 L52.119,8.363 C52.119,7.094 51.127,7.032 50.517,6.991 L50.517,6.632 L53.767,6.126 L53.767,8.91 L53.813,8.91 C54.105,8.128 55.057,6.126 57.145,6.126 C59.386,6.126 59.596,7.349 59.596,9.314 L59.596,14.13 C59.596,15.502 60.313,15.691 61.199,15.691 L61.199,16.049 L56.342,16.049 L56.342,15.691 C57.228,15.691 57.949,15.502 57.949,14.13 L57.949,9.78 C57.949,7.963 57.928,7.139 56.531,7.139 C55.287,7.139 53.767,9.524 53.767,11.53 L53.767,14.13 C53.767,15.502 54.484,15.691 55.374,15.691 L55.374,16.049 L50.517,16.049 L50.517,15.691 z" fill="#737373"/>
    <path d="M63.617,15.567 C64.898,15.567 65.685,15.403 65.685,13.623 L65.685,2.657 C65.685,0.877 64.902,0.709 63.617,0.709 L63.617,0.239 L69.174,0.239 C73.112,0.239 77.289,1.092 77.289,8.165 C77.289,15.238 72.898,16.045 69.174,16.045 L63.617,16.045 L63.617,15.567 z M67.794,13.125 C67.794,14.855 67.984,15.118 69.174,15.118 C73.256,15.118 74.941,12.935 74.941,8.165 C74.941,3.798 73.685,1.162 69.174,1.162 C67.988,1.162 67.794,1.306 67.794,3.156 L67.794,13.125 z" fill="#737373"/>
    <path d="M78.15,15.687 C79.04,15.687 79.757,15.497 79.757,14.126 L79.757,8.363 C79.757,7.094 78.785,7.032 78.15,6.991 L78.15,6.632 L81.405,6.126 L81.405,14.126 C81.405,15.497 82.122,15.687 83.007,15.687 L83.007,16.045 L78.15,16.045 L78.15,15.687 z M79.316,2.974 C79.316,2.299 79.843,1.771 80.519,1.771 C81.195,1.771 81.722,2.299 81.722,2.974 C81.722,3.65 81.195,4.177 80.519,4.177 C79.843,4.177 79.316,3.65 79.316,2.974 z" fill="#737373"/>
    <path d="M90.649,15.872 C90.142,16.062 89.425,16.251 88.136,16.251 C84.865,16.251 83.028,14.455 83.028,10.908 C83.028,7.827 84.272,6.117 87.312,6.117 C89.211,6.117 90.925,7.172 90.925,9.619 L90.925,10.084 L84.779,10.084 C84.779,11.856 85.644,15.469 89.17,15.469 C89.652,15.469 90.225,15.407 90.649,15.193 L90.649,15.868 z M89.042,9.392 C89.042,8.276 88.659,6.818 87.036,6.818 C85.413,6.818 84.774,8.614 84.774,9.392 L89.038,9.392 z" fill="#737373"/>
    <path d="M97.788,14.356 C98.797,14.356 101.145,14.398 101.145,16.742 C101.145,19.085 98.781,20.498 95.971,20.498 C93.903,20.498 91.749,19.716 91.749,17.817 C91.749,16.507 92.721,15.938 93.397,15.6 C93.034,15.39 92.486,14.991 92.486,14.101 C92.486,13.318 93.162,12.519 93.397,12.264 C92.91,11.864 92.173,11.23 92.173,9.434 C92.173,6.711 94.155,6.122 96.161,6.122 C97.133,6.122 97.66,6.29 98.34,6.649 C98.678,5.85 99.18,4.391 100.47,4.391 C101.063,4.391 101.483,4.77 101.483,5.405 C101.483,5.977 101.125,6.356 100.49,6.356 C99.942,6.356 99.815,6.06 99.539,6.06 C99.077,6.06 98.888,6.674 98.781,7.011 C99.032,7.287 99.728,8.066 99.728,9.545 C99.728,11.675 98.402,12.882 95.868,12.882 C95.024,12.882 94.41,12.774 93.949,12.564 C93.821,12.733 93.57,13.05 93.57,13.512 C93.57,14.356 94.624,14.356 95.3,14.356 L97.792,14.356 z M94.134,15.856 C93.71,16.173 93.121,16.531 93.121,17.483 C93.121,18.727 94.237,19.806 96.074,19.806 C97.911,19.806 99.769,18.814 99.769,17.294 C99.769,16.214 98.884,15.856 97.825,15.856 L94.13,15.856 z M95.971,12.181 C97.747,12.181 97.977,10.789 97.977,9.668 C97.977,8.087 97.429,6.818 95.905,6.818 C94.237,6.818 93.924,8.041 93.924,9.269 C93.924,10.871 94.451,12.181 95.971,12.181 z" fill="#737373"/>
    <path d="M101.166,11.188 C101.166,8.021 102.875,6.122 105.578,6.122 C108.28,6.122 109.994,8.021 109.994,11.188 C109.994,14.356 108.284,16.255 105.578,16.255 C102.871,16.255 101.166,14.356 101.166,11.188 z M105.578,15.559 C107.691,15.559 108.115,12.943 108.115,11.188 C108.115,9.434 107.691,6.818 105.578,6.818 C103.465,6.818 103.044,9.438 103.044,11.188 C103.044,12.939 103.465,15.559 105.578,15.559 z" fill="#737373"/>
    <g id="line">
      <path d="M90.669,19.683 L0,19.683 L0,20.218 L91.184,20.218 C90.991,20.054 90.818,19.872 90.674,19.683 z" fill="#737373"/>
      <path d="M109.821,19.683 L101.483,19.683 C101.294,19.876 101.083,20.054 100.853,20.218 L109.821,20.218 L109.821,19.683 z" fill="#737373"/>
    </g>
  </g>
  <g>
    <path d="M2.529,30.505 C2.896,30.69 3.456,30.88 4.033,30.88 C4.655,30.88 4.985,30.62 4.985,30.229 C4.985,29.837 4.7,29.64 3.979,29.384 C2.982,29.038 2.332,28.486 2.332,27.613 C2.332,26.587 3.184,25.804 4.601,25.804 C5.277,25.804 5.775,25.949 6.134,26.109 L5.833,27.205 C5.594,27.09 5.166,26.921 4.577,26.921 C3.988,26.921 3.703,27.188 3.703,27.502 C3.703,27.885 4.041,28.054 4.816,28.346 C5.874,28.737 6.373,29.289 6.373,30.134 C6.373,31.139 5.598,31.996 3.951,31.996 C3.267,31.996 2.587,31.819 2.249,31.629 L2.525,30.509 z" fill="#737373"/>
    <path d="M11.79,31.732 C11.539,31.856 10.978,31.992 10.249,31.992 C8.177,31.992 7.106,30.702 7.106,28.993 C7.106,26.945 8.564,25.804 10.381,25.804 C11.085,25.804 11.617,25.949 11.86,26.072 L11.584,27.147 C11.308,27.032 10.925,26.925 10.443,26.925 C9.368,26.925 8.527,27.576 8.527,28.91 C8.527,30.113 9.24,30.867 10.451,30.867 C10.859,30.867 11.316,30.777 11.58,30.669 L11.786,31.728 z" fill="#737373"/>
    <path d="M14.13,25.903 L14.13,28.21 L16.363,28.21 L16.363,25.903 L17.714,25.903 L17.714,31.901 L16.363,31.901 L16.363,29.392 L14.13,29.392 L14.13,31.901 L12.766,31.901 L12.766,25.903 L14.13,25.903 z" fill="#737373"/>
    <path d="M24.486,28.84 C24.486,30.809 23.291,32 21.541,32 C19.79,32 18.719,30.657 18.719,28.947 C18.719,27.147 19.868,25.804 21.64,25.804 C23.411,25.804 24.486,27.184 24.486,28.84 z M20.152,28.919 C20.152,30.093 20.704,30.921 21.611,30.921 C22.517,30.921 23.053,30.047 23.053,28.882 C23.053,27.802 22.538,26.88 21.602,26.88 C20.667,26.88 20.152,27.753 20.152,28.919 z" fill="#737373"/>
    <path d="M30.958,28.84 C30.958,30.809 29.763,32 28.012,32 C26.262,32 25.191,30.657 25.191,28.947 C25.191,27.147 26.34,25.804 28.111,25.804 C29.883,25.804 30.958,27.184 30.958,28.84 z M26.624,28.919 C26.624,30.093 27.176,30.921 28.082,30.921 C28.989,30.921 29.524,30.047 29.524,28.882 C29.524,27.802 29.009,26.88 28.074,26.88 C27.139,26.88 26.624,27.753 26.624,28.919 z" fill="#737373"/>
    <path d="M31.938,25.903 L33.302,25.903 L33.302,30.764 L35.687,30.764 L35.687,31.905 L31.938,31.905 L31.938,25.907 z" fill="#737373"/>
    <path d="M43.959,28.84 C43.959,30.809 42.764,32 41.013,32 C39.263,32 38.192,30.657 38.192,28.947 C38.192,27.147 39.341,25.804 41.112,25.804 C42.884,25.804 43.959,27.184 43.959,28.84 z M39.625,28.919 C39.625,30.093 40.177,30.921 41.083,30.921 C41.99,30.921 42.525,30.047 42.525,28.882 C42.525,27.802 42.01,26.88 41.075,26.88 C40.14,26.88 39.625,27.753 39.625,28.919 z" fill="#737373"/>
    <path d="M44.939,25.903 L48.606,25.903 L48.606,27.015 L46.299,27.015 L46.299,28.387 L48.453,28.387 L48.453,29.491 L46.299,29.491 L46.299,31.905 L44.935,31.905 L44.935,25.907 z" fill="#737373"/>
    <path d="M56.68,29.607 C56.655,28.886 56.626,28.012 56.626,27.139 L56.601,27.139 C56.416,27.905 56.165,28.758 55.934,29.462 L55.205,31.802 L54.146,31.802 L53.504,29.479 C53.306,28.774 53.104,27.922 52.96,27.139 L52.943,27.139 C52.906,27.951 52.882,28.873 52.836,29.623 L52.729,31.901 L51.473,31.901 L51.856,25.903 L53.664,25.903 L54.253,27.905 C54.439,28.601 54.628,29.347 54.76,30.051 L54.785,30.051 C54.954,29.355 55.16,28.564 55.353,27.897 L55.996,25.903 L57.767,25.903 L58.097,31.901 L56.77,31.901 L56.68,29.602 z" fill="#737373"/>
    <path d="M62.797,29.364 L60.589,29.364 L60.589,30.789 L63.057,30.789 L63.057,31.901 L59.23,31.901 L59.23,25.903 L62.933,25.903 L62.933,27.015 L60.593,27.015 L60.593,28.264 L62.801,28.264 L62.801,29.368 z" fill="#737373"/>
    <path d="M64.07,25.981 C64.569,25.903 65.219,25.858 65.903,25.858 C67.044,25.858 67.782,26.064 68.358,26.501 C68.98,26.962 69.372,27.703 69.372,28.762 C69.372,29.911 68.952,30.702 68.375,31.193 C67.745,31.716 66.781,31.967 65.607,31.967 C64.902,31.967 64.404,31.922 64.066,31.876 L64.066,25.981 z M65.434,30.88 C65.549,30.904 65.734,30.904 65.907,30.904 C67.135,30.912 67.938,30.237 67.938,28.803 C67.946,27.555 67.217,26.9 66.052,26.9 C65.751,26.9 65.553,26.929 65.438,26.954 L65.438,30.88 z" fill="#737373"/>
    <path d="M71.72,25.903 L71.72,31.901 L70.356,31.901 L70.356,25.903 L71.72,25.903 z" fill="#737373"/>
    <path d="M77.388,31.732 C77.137,31.856 76.577,31.992 75.848,31.992 C73.776,31.992 72.704,30.702 72.704,28.993 C72.704,26.945 74.163,25.804 75.979,25.804 C76.684,25.804 77.215,25.949 77.458,26.072 L77.182,27.147 C76.906,27.032 76.523,26.925 76.041,26.925 C74.966,26.925 74.126,27.576 74.126,28.91 C74.126,30.113 74.838,30.867 76.049,30.867 C76.457,30.867 76.915,30.777 77.178,30.669 L77.384,31.728 z" fill="#737373"/>
    <path d="M79.732,25.903 L79.732,31.901 L78.369,31.901 L78.369,25.903 L79.732,25.903 z" fill="#737373"/>
    <path d="M80.997,31.901 L80.997,25.903 L82.583,25.903 L83.831,28.103 C84.185,28.733 84.544,29.483 84.812,30.159 L84.836,30.159 C84.746,29.368 84.721,28.556 84.721,27.658 L84.721,25.903 L85.969,25.903 L85.969,31.901 L84.544,31.901 L83.263,29.586 C82.908,28.943 82.513,28.169 82.22,27.469 L82.196,27.477 C82.233,28.268 82.249,29.116 82.249,30.093 L82.249,31.901 L81.001,31.901 z" fill="#737373"/>
    <path d="M90.797,29.364 L88.589,29.364 L88.589,30.789 L91.057,30.789 L91.057,31.901 L87.23,31.901 L87.23,25.903 L90.933,25.903 L90.933,27.015 L88.593,27.015 L88.593,28.264 L90.801,28.264 L90.801,29.368 z" fill="#737373"/>
  </g>
</svg>
