<svg xmlns="http://www.w3.org/2000/svg" x="0" y="0" width="49.097" height="32" viewBox="0, 0, 49.097, 32" fill="none">
  <path d="M8.132,8.154 C8.132,9.039 8.02,9.685 7.796,10.092 C7.449,10.814 6.694,11.175 5.533,11.175 C4.366,11.175 3.608,10.814 3.261,10.092 C3.037,9.685 2.926,9.039 2.926,8.154 L2.926,0.245 L-0,0.245 L-0,8.16 C-0,9.529 0.227,10.595 0.681,11.358 C1.533,12.756 3.151,13.455 5.533,13.455 C7.916,13.455 9.53,12.756 10.376,11.358 C10.83,10.595 11.058,9.529 11.058,8.16 L11.058,0.245 L8.132,0.245 z" fill="#737373"/>
  <path d="M39.77,8.074 L39.77,5.811 L30.665,5.811 L30.665,14.112 C30.541,13.283 30.172,12.626 29.556,12.142 C29.06,11.752 28.315,11.44 27.32,11.207 L25.051,10.674 C24.175,10.47 23.602,10.293 23.332,10.141 C22.913,9.914 22.703,9.571 22.703,9.11 C22.703,8.61 22.915,8.219 23.341,7.94 C23.767,7.66 24.337,7.52 25.05,7.52 C25.692,7.52 26.228,7.628 26.66,7.844 C27.308,8.17 27.656,8.72 27.704,9.495 L30.3,9.495 C30.253,8.126 29.743,7.082 28.769,6.363 C27.794,5.643 26.618,5.284 25.238,5.284 C23.586,5.284 22.334,5.665 21.481,6.428 C20.76,7.073 20.346,7.858 20.234,8.782 C20.05,9.423 19.821,9.907 19.546,10.231 C19.035,10.849 18.294,11.157 17.322,11.157 C16.374,11.157 15.592,10.798 14.977,10.078 C14.362,9.359 14.054,8.277 14.054,6.832 C14.054,5.388 14.346,4.271 14.929,3.482 C15.512,2.692 16.308,2.298 17.318,2.298 C18.31,2.298 19.058,2.577 19.563,3.137 C19.845,3.451 20.077,3.917 20.257,4.534 L23.091,4.534 C23.049,3.731 22.739,2.93 22.163,2.132 C21.119,0.711 19.468,-0 17.21,-0 C15.523,-0 14.133,0.53 13.04,1.59 C11.784,2.808 11.155,4.54 11.155,6.789 C11.155,8.868 11.708,10.505 12.812,11.699 C13.917,12.887 15.434,13.481 17.364,13.481 C18.924,13.481 20.203,13.042 21.202,12.162 C21.264,12.107 21.323,12.052 21.38,11.995 C21.422,12.027 21.465,12.059 21.51,12.09 C22.024,12.445 22.97,12.774 24.346,13.077 L25.746,13.383 C26.565,13.558 27.164,13.759 27.541,13.986 C27.918,14.219 28.107,14.548 28.107,14.973 C28.107,15.701 27.722,16.199 26.952,16.467 C26.546,16.607 26.017,16.677 25.366,16.677 C24.279,16.677 23.512,16.412 23.064,15.882 C22.819,15.59 22.655,15.151 22.571,14.562 L19.992,14.562 C19.992,15.902 20.479,16.955 21.455,17.721 C22.43,18.487 23.769,18.87 25.472,18.87 C27.139,18.87 28.429,18.481 29.343,17.703 C30.086,17.071 30.527,16.306 30.665,15.409 L30.665,18.672 L33.481,18.672 L33.481,13.273 L38.923,13.273 L38.923,11.036 L33.481,11.036 L33.481,8.074 z" fill="#737373"/>
  <path d="M0.797,23.272 L0.797,25.448 C0.797,25.704 0.845,25.916 0.942,26.085 C1.085,26.341 1.326,26.469 1.666,26.469 C2.074,26.469 2.351,26.331 2.497,26.054 C2.576,25.904 2.616,25.702 2.616,25.448 L2.616,23.272 L3.097,23.272 L3.097,25.249 C3.097,25.682 3.039,26.015 2.922,26.248 C2.707,26.673 2.301,26.886 1.705,26.886 C1.108,26.886 0.704,26.673 0.49,26.248 C0.373,26.015 0.315,25.682 0.315,25.249 L0.315,23.272 z" fill="#737373"/>
  <path d="M3.768,24.226 L4.178,24.226 L4.178,24.59 C4.3,24.44 4.428,24.332 4.564,24.267 C4.7,24.201 4.851,24.168 5.017,24.168 C5.381,24.168 5.627,24.295 5.755,24.549 C5.825,24.688 5.86,24.887 5.86,25.146 L5.86,26.792 L5.422,26.792 L5.422,25.175 C5.422,25.018 5.399,24.892 5.352,24.796 C5.276,24.636 5.137,24.556 4.935,24.556 C4.833,24.556 4.749,24.567 4.684,24.588 C4.566,24.623 4.462,24.693 4.372,24.799 C4.3,24.883 4.254,24.971 4.232,25.061 C4.21,25.151 4.2,25.28 4.2,25.448 L4.2,26.792 L3.768,26.792 z" fill="#737373"/>
  <path d="M6.498,24.238 L6.937,24.238 L6.937,26.792 L6.498,26.792 z M6.498,23.272 L6.937,23.272 L6.937,23.761 L6.498,23.761 z" fill="#737373"/>
  <path d="M7.801,24.226 L8.486,26.316 L9.2,24.226 L9.672,24.226 L8.706,26.792 L8.246,26.792 L7.3,24.226 z" fill="#737373"/>
  <path d="M11.782,25.304 C11.765,25.117 11.725,24.968 11.661,24.856 C11.544,24.648 11.348,24.545 11.074,24.545 C10.878,24.545 10.713,24.616 10.58,24.759 C10.447,24.902 10.376,25.084 10.368,25.304 z M11.628,24.296 C11.798,24.382 11.927,24.493 12.016,24.628 C12.102,24.758 12.159,24.909 12.188,25.081 C12.213,25.2 12.226,25.388 12.226,25.647 L10.359,25.647 C10.367,25.908 10.428,26.118 10.542,26.275 C10.656,26.433 10.833,26.512 11.072,26.512 C11.296,26.512 11.474,26.437 11.607,26.288 C11.682,26.202 11.735,26.101 11.766,25.987 L12.19,25.987 C12.179,26.082 12.141,26.187 12.078,26.302 C12.015,26.418 11.945,26.513 11.867,26.586 C11.737,26.714 11.576,26.8 11.384,26.845 C11.281,26.871 11.165,26.884 11.035,26.884 C10.717,26.884 10.448,26.767 10.227,26.535 C10.007,26.302 9.896,25.977 9.896,25.558 C9.896,25.146 10.007,24.811 10.23,24.554 C10.452,24.297 10.743,24.168 11.102,24.168 C11.283,24.168 11.458,24.211 11.628,24.296" fill="#737373"/>
  <path d="M12.784,24.226 L13.194,24.226 L13.194,24.669 C13.228,24.583 13.31,24.478 13.441,24.354 C13.572,24.23 13.723,24.168 13.894,24.168 C13.902,24.168 13.915,24.169 13.935,24.171 C13.954,24.172 13.986,24.175 14.033,24.18 L14.033,24.636 C14.007,24.631 13.984,24.628 13.962,24.626 C13.941,24.625 13.917,24.624 13.891,24.624 C13.674,24.624 13.507,24.694 13.391,24.833 C13.274,24.973 13.216,25.134 13.216,25.316 L13.216,26.792 L12.784,26.792 z" fill="#737373"/>
  <path d="M14.663,25.987 C14.676,26.131 14.713,26.241 14.773,26.318 C14.884,26.457 15.076,26.526 15.35,26.526 C15.513,26.526 15.657,26.492 15.781,26.422 C15.905,26.353 15.967,26.245 15.967,26.1 C15.967,25.99 15.917,25.906 15.818,25.848 C15.755,25.813 15.63,25.772 15.443,25.726 L15.095,25.64 C14.872,25.585 14.708,25.525 14.603,25.458 C14.415,25.341 14.32,25.18 14.32,24.974 C14.32,24.731 14.409,24.534 14.586,24.384 C14.764,24.234 15.002,24.159 15.302,24.159 C15.693,24.159 15.976,24.272 16.149,24.499 C16.258,24.643 16.31,24.798 16.307,24.964 L15.9,24.964 C15.891,24.867 15.856,24.779 15.794,24.699 C15.693,24.587 15.517,24.53 15.267,24.53 C15.1,24.53 14.974,24.561 14.888,24.623 C14.802,24.685 14.759,24.767 14.759,24.869 C14.759,24.981 14.815,25.07 14.928,25.137 C14.993,25.177 15.089,25.212 15.216,25.242 L15.507,25.311 C15.823,25.387 16.034,25.459 16.142,25.53 C16.309,25.64 16.393,25.813 16.393,26.05 C16.393,26.278 16.306,26.475 16.13,26.641 C15.955,26.808 15.687,26.891 15.328,26.891 C14.942,26.891 14.668,26.804 14.507,26.631 C14.346,26.457 14.26,26.243 14.248,25.987 z" fill="#737373"/>
  <path d="M16.861,24.238 L17.299,24.238 L17.299,26.792 L16.861,26.792 z M16.861,23.272 L17.299,23.272 L17.299,23.761 L16.861,23.761 z" fill="#737373"/>
  <path d="M18.037,23.509 L18.474,23.509 L18.474,24.226 L18.883,24.226 L18.883,24.578 L18.474,24.578 L18.474,26.253 C18.474,26.343 18.504,26.403 18.565,26.433 C18.598,26.451 18.654,26.459 18.732,26.459 C18.753,26.459 18.776,26.459 18.8,26.458 C18.824,26.457 18.851,26.454 18.883,26.45 L18.883,26.792 C18.834,26.807 18.782,26.817 18.729,26.824 C18.675,26.83 18.617,26.833 18.555,26.833 C18.354,26.833 18.217,26.782 18.145,26.679 C18.073,26.576 18.037,26.442 18.037,26.277 L18.037,24.578 L17.69,24.578 L17.69,24.226 L18.037,24.226 z" fill="#737373"/>
  <path d="M20.919,24.226 L21.396,24.226 C21.335,24.39 21.2,24.766 20.991,25.353 C20.835,25.794 20.704,26.153 20.598,26.432 C20.349,27.086 20.174,27.485 20.071,27.629 C19.969,27.773 19.794,27.845 19.545,27.845 C19.484,27.845 19.437,27.842 19.405,27.837 C19.372,27.833 19.331,27.824 19.284,27.811 L19.284,27.418 C19.359,27.439 19.413,27.451 19.446,27.456 C19.48,27.461 19.509,27.463 19.535,27.463 C19.615,27.463 19.673,27.45 19.711,27.424 C19.748,27.398 19.78,27.365 19.805,27.327 C19.813,27.314 19.842,27.249 19.891,27.131 C19.941,27.013 19.977,26.925 19.999,26.868 L19.05,24.226 L19.539,24.226 L20.227,26.317 z" fill="#737373"/>
  <path d="M24.724,26.188 C24.829,25.972 24.882,25.731 24.882,25.466 C24.882,25.227 24.844,25.032 24.768,24.882 C24.648,24.646 24.441,24.528 24.147,24.528 C23.887,24.528 23.697,24.628 23.579,24.829 C23.46,25.03 23.401,25.273 23.401,25.557 C23.401,25.83 23.46,26.057 23.579,26.239 C23.697,26.421 23.885,26.512 24.143,26.512 C24.425,26.512 24.619,26.404 24.724,26.188 M24.992,24.482 C25.219,24.702 25.332,25.026 25.332,25.454 C25.332,25.867 25.233,26.209 25.033,26.479 C24.833,26.749 24.523,26.884 24.102,26.884 C23.752,26.884 23.473,26.764 23.267,26.526 C23.061,26.287 22.958,25.967 22.958,25.564 C22.958,25.133 23.066,24.79 23.284,24.535 C23.501,24.279 23.793,24.151 24.159,24.151 C24.488,24.151 24.765,24.262 24.992,24.482" fill="#737373"/>
  <path d="M26.063,23.442 C26.164,23.295 26.358,23.222 26.646,23.222 C26.673,23.222 26.701,23.223 26.73,23.224 C26.758,23.226 26.791,23.228 26.828,23.231 L26.828,23.624 C26.783,23.621 26.75,23.619 26.73,23.618 C26.71,23.617 26.691,23.617 26.673,23.617 C26.54,23.617 26.461,23.651 26.435,23.719 C26.41,23.787 26.397,23.96 26.397,24.238 L26.828,24.238 L26.828,24.578 L26.397,24.578 L26.397,26.792 L25.97,26.792 L25.97,24.578 L25.613,24.578 L25.613,24.238 L25.97,24.238 L25.97,23.835 C25.976,23.656 26.008,23.525 26.063,23.442" fill="#737373"/>
  <path d="M31.333,23.528 C31.576,23.763 31.712,24.03 31.738,24.329 L31.273,24.329 C31.222,24.102 31.119,23.922 30.964,23.79 C30.809,23.657 30.592,23.591 30.313,23.591 C29.973,23.591 29.698,23.713 29.488,23.956 C29.279,24.2 29.174,24.574 29.174,25.078 C29.174,25.49 29.269,25.825 29.458,26.082 C29.647,26.338 29.929,26.467 30.304,26.467 C30.649,26.467 30.912,26.332 31.093,26.062 C31.188,25.919 31.26,25.732 31.307,25.501 L31.772,25.501 C31.731,25.871 31.595,26.182 31.364,26.433 C31.088,26.735 30.715,26.886 30.246,26.886 C29.842,26.886 29.502,26.762 29.228,26.514 C28.866,26.187 28.685,25.68 28.685,24.996 C28.685,24.477 28.821,24.051 29.093,23.718 C29.386,23.357 29.791,23.176 30.308,23.176 C30.748,23.176 31.09,23.293 31.333,23.528" fill="#737373"/>
  <path d="M32.798,26.405 C32.889,26.476 32.996,26.512 33.121,26.512 C33.273,26.512 33.42,26.477 33.562,26.407 C33.802,26.29 33.922,26.1 33.922,25.835 L33.922,25.488 C33.869,25.522 33.801,25.55 33.718,25.572 C33.635,25.595 33.554,25.611 33.474,25.62 L33.214,25.654 C33.057,25.674 32.94,25.707 32.861,25.752 C32.728,25.827 32.661,25.946 32.661,26.11 C32.661,26.235 32.707,26.333 32.798,26.405 M33.706,25.239 C33.805,25.226 33.871,25.185 33.905,25.115 C33.924,25.076 33.934,25.021 33.934,24.949 C33.934,24.801 33.881,24.694 33.777,24.627 C33.672,24.561 33.523,24.528 33.328,24.528 C33.104,24.528 32.944,24.589 32.85,24.711 C32.798,24.778 32.763,24.879 32.747,25.012 L32.345,25.012 C32.353,24.695 32.455,24.474 32.652,24.35 C32.849,24.226 33.078,24.163 33.338,24.163 C33.64,24.163 33.885,24.221 34.073,24.336 C34.26,24.451 34.353,24.63 34.353,24.873 L34.353,26.352 C34.353,26.396 34.362,26.432 34.381,26.459 C34.399,26.487 34.438,26.5 34.497,26.5 C34.516,26.5 34.538,26.499 34.561,26.497 C34.585,26.494 34.611,26.491 34.638,26.486 L34.638,26.804 C34.571,26.824 34.52,26.836 34.485,26.84 C34.45,26.845 34.402,26.848 34.341,26.848 C34.192,26.848 34.085,26.795 34.017,26.689 C33.982,26.634 33.957,26.554 33.943,26.452 C33.855,26.567 33.729,26.667 33.564,26.752 C33.4,26.836 33.219,26.879 33.021,26.879 C32.782,26.879 32.588,26.807 32.437,26.662 C32.286,26.518 32.21,26.337 32.21,26.12 C32.21,25.882 32.285,25.698 32.433,25.567 C32.582,25.436 32.777,25.356 33.018,25.325 z" fill="#737373"/>
  <path d="M35.072,23.272 L35.503,23.272 L35.503,26.792 L35.072,26.792 z" fill="#737373"/>
  <path d="M36.15,24.238 L36.589,24.238 L36.589,26.792 L36.15,26.792 z M36.15,23.272 L36.589,23.272 L36.589,23.761 L36.15,23.761 z" fill="#737373"/>
  <path d="M37.442,23.442 C37.543,23.295 37.737,23.222 38.025,23.222 C38.052,23.222 38.08,23.223 38.108,23.224 C38.137,23.226 38.17,23.228 38.207,23.231 L38.207,23.624 C38.161,23.621 38.129,23.619 38.108,23.618 C38.088,23.617 38.069,23.617 38.052,23.617 C37.919,23.617 37.84,23.651 37.814,23.719 C37.788,23.787 37.775,23.96 37.775,24.238 L38.207,24.238 L38.207,24.578 L37.775,24.578 L37.775,26.792 L37.349,26.792 L37.349,24.578 L36.992,24.578 L36.992,24.238 L37.349,24.238 L37.349,23.835 C37.355,23.656 37.386,23.525 37.442,23.442" fill="#737373"/>
  <path d="M40.196,26.188 C40.301,25.972 40.354,25.731 40.354,25.466 C40.354,25.227 40.316,25.032 40.24,24.882 C40.12,24.646 39.913,24.528 39.619,24.528 C39.359,24.528 39.169,24.628 39.051,24.829 C38.932,25.03 38.873,25.273 38.873,25.557 C38.873,25.83 38.932,26.057 39.051,26.239 C39.169,26.421 39.357,26.512 39.615,26.512 C39.897,26.512 40.091,26.404 40.196,26.188 M40.464,24.482 C40.691,24.702 40.804,25.026 40.804,25.454 C40.804,25.867 40.705,26.209 40.505,26.479 C40.305,26.749 39.995,26.884 39.574,26.884 C39.224,26.884 38.945,26.764 38.739,26.526 C38.533,26.287 38.43,25.967 38.43,25.564 C38.43,25.133 38.538,24.79 38.755,24.535 C38.973,24.279 39.265,24.151 39.631,24.151 C39.96,24.151 40.237,24.262 40.464,24.482" fill="#737373"/>
  <path d="M41.346,24.226 L41.756,24.226 L41.756,24.669 C41.79,24.583 41.872,24.478 42.003,24.354 C42.134,24.23 42.285,24.168 42.456,24.168 C42.464,24.168 42.477,24.169 42.496,24.171 C42.516,24.172 42.548,24.175 42.595,24.18 L42.595,24.636 C42.569,24.631 42.546,24.628 42.524,24.626 C42.502,24.625 42.479,24.624 42.453,24.624 C42.236,24.624 42.069,24.694 41.952,24.833 C41.836,24.973 41.778,25.134 41.778,25.316 L41.778,26.792 L41.346,26.792 z" fill="#737373"/>
  <path d="M42.969,24.226 L43.378,24.226 L43.378,24.59 C43.5,24.44 43.628,24.332 43.764,24.267 C43.9,24.201 44.051,24.168 44.217,24.168 C44.581,24.168 44.827,24.295 44.955,24.549 C45.026,24.688 45.061,24.887 45.061,25.146 L45.061,26.792 L44.622,26.792 L44.622,25.175 C44.622,25.018 44.599,24.892 44.553,24.796 C44.476,24.636 44.337,24.556 44.136,24.556 C44.033,24.556 43.95,24.567 43.884,24.588 C43.766,24.623 43.662,24.693 43.572,24.799 C43.501,24.883 43.454,24.971 43.432,25.061 C43.411,25.151 43.4,25.28 43.4,25.448 L43.4,26.792 L42.969,26.792 z" fill="#737373"/>
  <path d="M45.698,24.238 L46.137,24.238 L46.137,26.792 L45.698,26.792 z M45.698,23.272 L46.137,23.272 L46.137,23.761 L45.698,23.761 z" fill="#737373"/>
  <path d="M47.256,26.405 C47.347,26.476 47.455,26.512 47.58,26.512 C47.731,26.512 47.878,26.477 48.02,26.407 C48.26,26.29 48.38,26.1 48.38,25.835 L48.38,25.488 C48.327,25.522 48.26,25.55 48.177,25.572 C48.094,25.595 48.012,25.611 47.933,25.62 L47.672,25.654 C47.516,25.674 47.398,25.707 47.32,25.752 C47.186,25.827 47.119,25.946 47.119,26.11 C47.119,26.235 47.165,26.333 47.256,26.405 M48.164,25.239 C48.263,25.226 48.33,25.185 48.363,25.115 C48.382,25.076 48.392,25.021 48.392,24.949 C48.392,24.801 48.34,24.694 48.235,24.627 C48.131,24.561 47.981,24.528 47.787,24.528 C47.562,24.528 47.403,24.589 47.309,24.711 C47.256,24.778 47.222,24.879 47.206,25.012 L46.803,25.012 C46.811,24.695 46.914,24.474 47.111,24.35 C47.308,24.226 47.536,24.163 47.796,24.163 C48.098,24.163 48.343,24.221 48.531,24.336 C48.718,24.451 48.811,24.63 48.811,24.873 L48.811,26.352 C48.811,26.396 48.821,26.432 48.839,26.459 C48.857,26.487 48.896,26.5 48.955,26.5 C48.974,26.5 48.996,26.499 49.02,26.497 C49.044,26.494 49.069,26.491 49.097,26.486 L49.097,26.804 C49.029,26.824 48.978,26.836 48.943,26.84 C48.908,26.845 48.86,26.848 48.799,26.848 C48.651,26.848 48.543,26.795 48.476,26.689 C48.441,26.634 48.416,26.554 48.402,26.452 C48.314,26.567 48.187,26.667 48.023,26.752 C47.858,26.836 47.677,26.879 47.479,26.879 C47.241,26.879 47.046,26.807 46.895,26.662 C46.744,26.518 46.669,26.337 46.669,26.12 C46.669,25.882 46.743,25.698 46.892,25.567 C47.04,25.436 47.235,25.356 47.476,25.325 z" fill="#737373"/>
  <path d="M0.593,30.761 C0.604,30.961 0.649,31.123 0.729,31.247 C0.881,31.481 1.15,31.597 1.535,31.597 C1.707,31.597 1.864,31.572 2.006,31.521 C2.28,31.422 2.417,31.244 2.417,30.989 C2.417,30.797 2.359,30.66 2.243,30.579 C2.125,30.499 1.941,30.429 1.69,30.37 L1.228,30.263 C0.926,30.192 0.713,30.115 0.587,30.03 C0.37,29.883 0.262,29.663 0.262,29.371 C0.262,29.055 0.369,28.795 0.582,28.592 C0.795,28.389 1.096,28.288 1.487,28.288 C1.846,28.288 2.151,28.377 2.402,28.555 C2.653,28.733 2.779,29.018 2.779,29.409 L2.33,29.409 C2.307,29.221 2.258,29.076 2.183,28.976 C2.044,28.792 1.807,28.7 1.473,28.7 C1.204,28.7 1.01,28.759 0.892,28.877 C0.774,28.996 0.715,29.133 0.715,29.29 C0.715,29.462 0.785,29.588 0.924,29.668 C1.015,29.719 1.222,29.783 1.544,29.86 L2.022,29.973 C2.253,30.027 2.431,30.101 2.556,30.195 C2.773,30.36 2.882,30.599 2.882,30.912 C2.882,31.302 2.743,31.581 2.467,31.748 C2.19,31.916 1.869,32 1.503,32 C1.076,32 0.742,31.888 0.5,31.664 C0.258,31.442 0.14,31.141 0.145,30.761 z" fill="#737373"/>
  <path d="M3.867,31.509 C3.958,31.581 4.066,31.617 4.19,31.617 C4.342,31.617 4.489,31.581 4.631,31.511 C4.871,31.395 4.991,31.204 4.991,30.939 L4.991,30.592 C4.938,30.626 4.87,30.654 4.787,30.677 C4.705,30.699 4.623,30.715 4.543,30.725 L4.283,30.758 C4.126,30.779 4.009,30.812 3.93,30.856 C3.797,30.931 3.73,31.051 3.73,31.215 C3.73,31.339 3.776,31.437 3.867,31.509 M4.775,30.344 C4.874,30.331 4.94,30.289 4.974,30.219 C4.993,30.181 5.003,30.125 5.003,30.053 C5.003,29.906 4.95,29.799 4.846,29.732 C4.742,29.665 4.592,29.632 4.398,29.632 C4.173,29.632 4.013,29.693 3.919,29.815 C3.867,29.883 3.832,29.983 3.816,30.116 L3.414,30.116 C3.422,29.799 3.524,29.578 3.721,29.454 C3.918,29.33 4.147,29.268 4.407,29.268 C4.709,29.268 4.954,29.325 5.142,29.441 C5.329,29.556 5.422,29.735 5.422,29.977 L5.422,31.456 C5.422,31.501 5.431,31.537 5.45,31.564 C5.468,31.591 5.507,31.605 5.566,31.605 C5.585,31.605 5.607,31.603 5.631,31.601 C5.655,31.599 5.68,31.595 5.707,31.59 L5.707,31.909 C5.64,31.928 5.589,31.94 5.554,31.945 C5.519,31.95 5.471,31.952 5.41,31.952 C5.261,31.952 5.154,31.899 5.087,31.794 C5.051,31.738 5.027,31.659 5.012,31.557 C4.924,31.672 4.798,31.772 4.634,31.856 C4.469,31.941 4.288,31.983 4.09,31.983 C3.851,31.983 3.657,31.911 3.506,31.767 C3.355,31.622 3.28,31.442 3.28,31.225 C3.28,30.987 3.354,30.802 3.502,30.672 C3.651,30.541 3.846,30.46 4.087,30.43 z" fill="#737373"/>
  <path d="M6.129,29.33 L6.539,29.33 L6.539,29.695 C6.66,29.544 6.789,29.437 6.925,29.371 C7.061,29.306 7.211,29.273 7.378,29.273 C7.742,29.273 7.988,29.4 8.116,29.654 C8.186,29.793 8.221,29.992 8.221,30.251 L8.221,31.897 L7.783,31.897 L7.783,30.279 C7.783,30.123 7.759,29.996 7.713,29.901 C7.636,29.741 7.497,29.661 7.296,29.661 C7.194,29.661 7.11,29.671 7.045,29.692 C6.926,29.727 6.822,29.798 6.733,29.903 C6.661,29.988 6.614,30.075 6.593,30.166 C6.571,30.256 6.56,30.385 6.56,30.552 L6.56,31.897 L6.129,31.897 z" fill="#737373"/>
  <path d="M10.325,28.376 L12.767,28.376 L12.767,28.808 L10.802,28.808 L10.802,29.877 L12.53,29.877 L12.53,30.296 L10.802,30.296 L10.802,31.897 L10.325,31.897 z" fill="#737373"/>
  <path d="M12.938,29.33 L13.348,29.33 L13.348,29.774 C13.381,29.687 13.464,29.582 13.595,29.458 C13.726,29.335 13.877,29.273 14.048,29.273 C14.056,29.273 14.069,29.274 14.088,29.275 C14.107,29.277 14.14,29.28 14.187,29.285 L14.187,29.74 C14.161,29.735 14.137,29.732 14.116,29.73 C14.094,29.729 14.071,29.728 14.045,29.728 C13.828,29.728 13.661,29.798 13.544,29.938 C13.428,30.078 13.369,30.239 13.369,30.421 L13.369,31.897 L12.938,31.897 z" fill="#737373"/>
  <path d="M15.028,31.509 C15.119,31.581 15.227,31.617 15.351,31.617 C15.503,31.617 15.65,31.581 15.792,31.511 C16.032,31.395 16.152,31.204 16.152,30.939 L16.152,30.592 C16.099,30.626 16.031,30.654 15.948,30.677 C15.866,30.699 15.784,30.715 15.704,30.725 L15.444,30.758 C15.287,30.779 15.17,30.812 15.091,30.856 C14.958,30.931 14.891,31.051 14.891,31.215 C14.891,31.339 14.937,31.437 15.028,31.509 M15.936,30.344 C16.035,30.331 16.101,30.289 16.135,30.219 C16.154,30.181 16.164,30.125 16.164,30.053 C16.164,29.906 16.111,29.799 16.007,29.732 C15.903,29.665 15.753,29.632 15.559,29.632 C15.334,29.632 15.174,29.693 15.08,29.815 C15.028,29.883 14.993,29.983 14.977,30.116 L14.575,30.116 C14.583,29.799 14.685,29.578 14.882,29.454 C15.079,29.33 15.308,29.268 15.568,29.268 C15.87,29.268 16.115,29.325 16.303,29.441 C16.49,29.556 16.583,29.735 16.583,29.977 L16.583,31.456 C16.583,31.501 16.592,31.537 16.611,31.564 C16.629,31.591 16.668,31.605 16.727,31.605 C16.746,31.605 16.768,31.603 16.792,31.601 C16.816,31.599 16.841,31.595 16.868,31.59 L16.868,31.909 C16.801,31.928 16.75,31.94 16.715,31.945 C16.68,31.95 16.632,31.952 16.571,31.952 C16.423,31.952 16.315,31.899 16.248,31.794 C16.212,31.738 16.188,31.659 16.173,31.557 C16.085,31.672 15.959,31.772 15.795,31.856 C15.63,31.941 15.449,31.983 15.251,31.983 C15.013,31.983 14.818,31.911 14.667,31.767 C14.516,31.622 14.441,31.442 14.441,31.225 C14.441,30.987 14.515,30.802 14.663,30.672 C14.812,30.541 15.007,30.46 15.248,30.43 z" fill="#737373"/>
  <path d="M17.29,29.33 L17.7,29.33 L17.7,29.695 C17.821,29.544 17.95,29.437 18.086,29.371 C18.222,29.306 18.373,29.273 18.539,29.273 C18.903,29.273 19.149,29.4 19.277,29.654 C19.347,29.793 19.382,29.992 19.382,30.251 L19.382,31.897 L18.944,31.897 L18.944,30.279 C18.944,30.123 18.92,29.996 18.874,29.901 C18.797,29.741 18.658,29.661 18.457,29.661 C18.355,29.661 18.271,29.671 18.206,29.692 C18.087,29.727 17.983,29.798 17.894,29.903 C17.822,29.988 17.775,30.075 17.754,30.166 C17.732,30.256 17.722,30.385 17.722,30.552 L17.722,31.897 L17.29,31.897 z" fill="#737373"/>
  <path d="M21.715,29.467 C21.897,29.608 22.006,29.849 22.042,30.193 L21.623,30.193 C21.597,30.035 21.539,29.903 21.448,29.799 C21.357,29.694 21.211,29.642 21.01,29.642 C20.735,29.642 20.538,29.776 20.42,30.044 C20.343,30.218 20.305,30.432 20.305,30.688 C20.305,30.945 20.359,31.161 20.468,31.337 C20.577,31.512 20.748,31.6 20.981,31.6 C21.16,31.6 21.301,31.545 21.406,31.436 C21.511,31.327 21.583,31.178 21.623,30.989 L22.042,30.989 C21.994,31.329 21.875,31.578 21.683,31.735 C21.491,31.893 21.246,31.971 20.947,31.971 C20.612,31.971 20.344,31.849 20.144,31.603 C19.945,31.358 19.845,31.052 19.845,30.684 C19.845,30.234 19.954,29.883 20.173,29.632 C20.392,29.381 20.671,29.256 21.01,29.256 C21.299,29.256 21.534,29.326 21.715,29.467" fill="#737373"/>
  <path d="M22.474,29.342 L22.912,29.342 L22.912,31.897 L22.474,31.897 z M22.474,28.376 L22.912,28.376 L22.912,28.865 L22.474,28.865 z" fill="#737373"/>
  <path d="M23.821,31.092 C23.834,31.236 23.87,31.346 23.931,31.422 C24.042,31.561 24.234,31.631 24.508,31.631 C24.671,31.631 24.815,31.596 24.939,31.527 C25.062,31.457 25.124,31.35 25.124,31.204 C25.124,31.094 25.075,31.01 24.976,30.953 C24.912,30.918 24.787,30.877 24.601,30.83 L24.252,30.744 C24.03,30.69 23.866,30.629 23.761,30.562 C23.572,30.446 23.478,30.284 23.478,30.078 C23.478,29.835 23.567,29.639 23.744,29.488 C23.921,29.338 24.16,29.263 24.459,29.263 C24.851,29.263 25.134,29.377 25.307,29.603 C25.415,29.747 25.468,29.902 25.465,30.068 L25.057,30.068 C25.049,29.971 25.014,29.883 24.952,29.804 C24.85,29.691 24.674,29.635 24.424,29.635 C24.258,29.635 24.131,29.666 24.045,29.728 C23.959,29.79 23.917,29.872 23.917,29.974 C23.917,30.085 23.973,30.174 24.086,30.241 C24.151,30.281 24.247,30.316 24.374,30.346 L24.664,30.416 C24.98,30.491 25.192,30.564 25.299,30.634 C25.467,30.744 25.551,30.918 25.551,31.154 C25.551,31.383 25.463,31.58 25.288,31.746 C25.112,31.912 24.845,31.995 24.486,31.995 C24.099,31.995 23.825,31.909 23.665,31.735 C23.504,31.562 23.417,31.347 23.406,31.092 z" fill="#737373"/>
  <path d="M27.714,29.467 C27.895,29.608 28.004,29.849 28.041,30.193 L27.622,30.193 C27.596,30.035 27.538,29.903 27.447,29.799 C27.356,29.694 27.209,29.642 27.008,29.642 C26.733,29.642 26.537,29.776 26.419,30.044 C26.342,30.218 26.304,30.432 26.304,30.688 C26.304,30.945 26.358,31.161 26.466,31.337 C26.575,31.512 26.746,31.6 26.979,31.6 C27.158,31.6 27.3,31.545 27.405,31.436 C27.509,31.327 27.582,31.178 27.622,30.989 L28.041,30.989 C27.993,31.329 27.873,31.578 27.682,31.735 C27.49,31.893 27.245,31.971 26.946,31.971 C26.61,31.971 26.343,31.849 26.143,31.603 C25.943,31.358 25.843,31.052 25.843,30.684 C25.843,30.234 25.953,29.883 26.172,29.632 C26.391,29.381 26.669,29.256 27.008,29.256 C27.297,29.256 27.533,29.326 27.714,29.467" fill="#737373"/>
  <path d="M30.064,31.292 C30.169,31.076 30.222,30.835 30.222,30.57 C30.222,30.331 30.184,30.137 30.108,29.986 C29.988,29.75 29.781,29.632 29.487,29.632 C29.227,29.632 29.037,29.733 28.919,29.934 C28.8,30.135 28.741,30.377 28.741,30.661 C28.741,30.934 28.8,31.162 28.919,31.344 C29.037,31.526 29.225,31.617 29.483,31.617 C29.765,31.617 29.959,31.508 30.064,31.292 M30.332,29.586 C30.559,29.807 30.672,30.131 30.672,30.558 C30.672,30.972 30.572,31.314 30.373,31.583 C30.173,31.853 29.862,31.988 29.442,31.988 C29.091,31.988 28.813,31.869 28.607,31.63 C28.401,31.391 28.297,31.071 28.297,30.669 C28.297,30.238 28.406,29.895 28.623,29.639 C28.841,29.384 29.133,29.256 29.499,29.256 C29.828,29.256 30.105,29.366 30.332,29.586" fill="#737373"/>
</svg>
