<svg viewBox="0 0 32 32" aria-hidden="true">
    <path fillRule="evenodd" clipRule="evenodd"
        d="M6.968,11.625 L6.968,14.698 L5.955,14.698 L7.365,17.831 L8.741,14.698 L7.728,14.698 L7.728,11.625 L6.968,11.625 z M23.527,17.311 C24.038,17.289 24.444,16.869 24.447,16.357 C24.447,15.83 24.02,15.403 23.493,15.403 C22.966,15.403 22.539,15.83 22.539,16.357 C22.539,16.884 22.966,17.311 23.493,17.311 z M21.433,11.105 L25.579,11.105 L25.579,9.948 L21.399,9.948 z M13.8,6.165 C13.8,5.911 13.698,5.667 13.518,5.488 C13.337,5.309 13.092,5.21 12.837,5.211 C12.447,5.211 12.096,5.447 11.947,5.807 C11.799,6.169 11.883,6.583 12.16,6.858 C12.437,7.132 12.852,7.212 13.212,7.061 C13.571,6.909 13.803,6.555 13.8,6.165 z M7.729,27.047 C9.148,28.098 10.752,28.872 12.457,29.326 L12.457,26.371 C11.525,26.371 10.769,25.615 10.769,24.682 C10.769,23.75 11.525,22.994 12.457,22.994 L12.457,19.827 L10.194,19.827 L10.194,20.41 C10.194,20.62 10.024,20.79 9.814,20.79 L7.729,20.79 z M5.255,20.03 L9.476,20.03 L9.476,18.865 L5.255,18.865 z M13.8,24.682 C13.795,24.155 13.366,23.729 12.837,23.729 C12.447,23.729 12.096,23.964 11.947,24.324 C11.799,24.686 11.883,25.101 12.16,25.375 C12.437,25.649 12.852,25.729 13.212,25.578 C13.571,25.427 13.803,25.073 13.8,24.682 z M26.601,14.964 L29.742,16.374 L26.601,17.75 L26.601,16.737 L25.224,16.737 C25.224,17.67 24.468,18.426 23.535,18.426 C22.603,18.426 21.847,17.67 21.847,16.737 L19.448,16.737 L19.448,15.977 L21.847,15.977 C21.987,15.331 22.493,14.826 23.139,14.685 L23.139,11.873 L21.07,11.873 C20.859,11.869 20.69,11.697 20.69,11.485 L20.69,10.911 L13.8,10.911 L13.8,10.142 L20.673,10.142 L20.673,9.56 C20.673,9.35 20.844,9.18 21.053,9.18 L25.993,9.18 C26.205,9.18 26.377,9.349 26.381,9.56 L26.381,10.142 L28.83,10.142 C27.015,6 23.298,2.998 18.866,2.096 L18.866,9.56 L18.106,9.56 L18.106,1.96 C17.416,1.859 16.719,1.808 16.021,1.808 C15.082,1.807 14.146,1.9 13.226,2.087 L13.226,4.46 C14.158,4.46 14.914,5.216 14.914,6.148 C14.914,7.082 14.158,7.837 13.226,7.837 L13.226,15.977 L17.515,15.977 L17.515,16.737 L12.837,16.737 C12.628,16.737 12.457,16.567 12.457,16.357 L12.457,7.871 C11.525,7.871 10.769,7.115 10.769,6.182 C10.769,5.25 11.525,4.494 12.457,4.494 L12.457,2.264 C10.751,2.717 9.146,3.49 7.729,4.544 L7.729,9.56 L6.96,9.56 L6.96,5.152 C5.359,6.517 4.084,8.221 3.228,10.142 L11.875,10.142 L11.875,10.911 L2.958,10.911 C0.897,16.413 2.496,22.618 6.96,26.439 L6.96,20.79 L4.875,20.79 C4.664,20.79 4.491,20.621 4.486,20.41 L4.486,18.485 C4.491,18.274 4.664,18.105 4.875,18.105 L9.814,18.105 C10.024,18.105 10.194,18.275 10.194,18.485 L10.194,19.067 L12.837,19.067 C13.049,19.067 13.221,19.236 13.226,19.448 L13.226,22.994 C13.863,23.146 14.361,23.641 14.517,24.277 L18.072,24.277 L18.072,11.485 L18.832,11.485 L18.832,24.699 C18.832,24.91 18.663,25.08 18.452,25.08 L14.484,25.08 C14.333,25.72 13.833,26.22 13.192,26.371 L13.192,29.538 C14.112,29.725 15.049,29.819 15.987,29.816 C16.468,29.816 16.873,29.749 17.312,29.749 L17.118,28.71 L20.496,29.462 L17.701,31.438 L17.507,30.517 C17.014,30.568 16.517,30.593 16.021,30.593 C8.589,30.583 2.323,25.049 1.396,17.675 C0.469,10.301 5.169,3.388 12.368,1.538 C19.566,-0.311 27.017,3.48 29.758,10.387 C29.801,10.506 29.785,10.637 29.716,10.742 C29.647,10.847 29.529,10.91 29.404,10.911 L26.381,10.911 L26.381,11.485 C26.377,11.698 26.205,11.869 25.993,11.873 L23.907,11.873 L23.907,14.685 C24.554,14.826 25.059,15.331 25.199,15.977 L26.601,15.977 z"
        fill="#000000" />
</svg>